<?xml version="1.0" encoding="utf-8"?>
<!-- Generator: Adobe Illustrator 23.0.0, SVG Export Plug-In . SVG Version: 6.00 Build 0)  -->
<svg version="1.1" xmlns="http://www.w3.org/2000/svg" xmlns:xlink="http://www.w3.org/1999/xlink" x="0px" y="0px"
	 viewBox="0 0 24 24" enable-background="new 0 0 24 24" xml:space="preserve">
	<symbol id="home-outline">
		<path fill-rule="evenodd" d="M20.42 10.18L12.71 2.3c-.188-.19-.443-.296-.71-.296-.267 0-.522.107-.71.296l-7.71 7.89c-.377.38-.586.895-.58 1.43V20c-.002 1.063.829 1.942 1.89 2h14.22c1.061-.058 1.892-.937 1.89-2v-8.38c0-.537-.207-1.053-.58-1.44zM10 20v-6h4v6h-4zm9 0h-3v-7c0-.552-.448-1-1-1H9c-.552 0-1 .448-1 1v7H5v-8.42l7-7.15 7 7.19V20z" opacity=".9"/>
	</symbol>
	<symbol id="bell">		
        <path fill="none" stroke-width="2.16" stroke-linecap="round" stroke-linejoin="round" stroke-miterlimit="10" d="
        M6.2,15.4l1-4.5c0.7-2.7,2-5.5,5-5.5s4.2,2.7,5,5.5l2,7.5"/>
    
        <path fill="none" stroke-width="2.16" stroke-linecap="round" stroke-linejoin="round" stroke-miterlimit="10" d="
        M13.7,2.4h-3"/>
    
        <path fill="none" stroke-width="2.16" stroke-linecap="round" stroke-linejoin="round" stroke-miterlimit="10" d="
        M19.2,18.4h-11"/>
		<circle id="cirlce" fill="#77CDB3" cx="12.4" cy="21.4" r="1.4" stroke="none" />
	</symbol>
	<symbol id="message">
		<g transform="translate(-0.127 -0.184)">
				<path fill="none" stroke="#FDF5F7" stroke-width="2" stroke-linecap="round" stroke-linejoin="round" stroke-miterlimit="10" d="
				M6.3,16.8H5.8c-1.3,0-2.4-1.1-2.4-2.4c0,0,0,0,0,0V6.7c0-1.3,1.1-2.4,2.4-2.4h12.6c1.3,0,2.4,1.1,2.4,2.4c0,0,0,0,0,0v7.7
				c0,1.3-1.1,2.4-2.4,2.4h-6.6c-0.7,0-1.4,0.3-1.9,0.9l-1.7,2"/>
			<circle fill="#FFFFFF" cx="8.1" cy="10.4" r="0.8"/>
			<circle fill="#FFFFFF" cx="12.1" cy="10.4" r="0.8"/>
			<circle fill="#FFFFFF" cx="16.1" cy="10.4" r="0.8"/>
		</g>
	</symbol>
	<symbol id="alarm">
		<g transform="translate(-0.117 -0.286)">			
				<path fill="none" stroke-width="2" stroke-linecap="round" stroke-linejoin="round" stroke-miterlimit="10" d="
				M12.1,21.7c4.3,0,7.7-3.5,7.7-7.7s-3.5-7.7-7.7-7.7S4.4,9.7,4.4,14c0,0,0,0,0,0C4.4,18.3,7.8,21.7,12.1,21.7
				C12.1,21.7,12.1,21.7,12.1,21.7z"/>
			
				<path fill="none" stroke-width="2" stroke-linecap="round" stroke-linejoin="round" stroke-miterlimit="10" d="
				M21.3,7.7l-1.9-1.9L21.3,7.7z"/>
			
				<path fill="none" stroke-width="2" stroke-linecap="round" stroke-linejoin="round" stroke-miterlimit="10" d="
				M3,7.7l1.9-1.9"/>
			
				<path fill="none" stroke-width="2" stroke-linecap="round" stroke-linejoin="round" stroke-miterlimit="10" d="
				M12.1,14.5V9.7"/>
			
				<path fill="none" stroke-width="2" stroke-linecap="round" stroke-linejoin="round" stroke-miterlimit="10" d="
				M9.7,3.4h4.8"/>
			<circle fill="#FF9F00" cx="12.1" cy="14.5" r="1.3"/>
		</g>
	</symbol>
    <symbol id="back-arrow">
        <path fill-rule="evenodd" d="M8.29 11.29c-.091.095-.162.207-.21.33-.1.243-.1.517 0 .76.048.123.119.235.21.33l3 3c.392.392 1.028.392 1.42 0 .392-.392.392-1.028 0-1.42L11.41 13H15c.552 0 1-.448 1-1s-.448-1-1-1h-3.59l1.3-1.29c.19-.188.296-.443.296-.71 0-.267-.107-.522-.296-.71-.188-.19-.443-.296-.71-.296-.267 0-.522.107-.71.296l-3 3zM2 12c0 5.523 4.477 10 10 10s10-4.477 10-10S17.523 2 12 2C9.348 2 6.804 3.054 4.929 4.929 3.054 6.804 2 9.348 2 12zm18 0c0 4.418-3.582 8-8 8s-8-3.582-8-8 3.582-8 8-8 8 3.582 8 8z"/>
    </symbol>
	<symbol id="eye">
		<path fill-rule="evenodd" d="M12 7c-5.21 0-9.219 4.59-9.219 4.59l-.37.41.37.41s3.655 4.168 8.516 4.55c.232.03.464.04.703.04.24 0 .471-.01.703-.04 4.861-.382 8.516-4.55 8.516-4.55l.37-.41-.37-.41S17.21 7 12 7zm0 1.25c1.377 0 2.646.376 3.75.879.398.66.625 1.418.625 2.246a4.372 4.372 0 0 1-3.887 4.355c-.012.003-.027-.002-.039 0-.149.008-.298.02-.449.02-.166 0-.327-.01-.488-.02a4.372 4.372 0 0 1-3.887-4.355c0-.815.22-1.575.605-2.227h-.02c1.114-.512 2.398-.898 3.79-.898zm0 1.25a1.875 1.875 0 1 0 .001 3.751A1.875 1.875 0 0 0 12 9.5zm-5.469.586c-.097.42-.156.842-.156 1.289a5.58 5.58 0 0 0 .86 2.988A14.497 14.497 0 0 1 4.206 12c.3-.308 1.138-1.123 2.324-1.914zm10.938 0A14.957 14.957 0 0 1 19.793 12a14.497 14.497 0 0 1-3.027 2.363 5.58 5.58 0 0 0 .703-4.277z" stroke="none" />
	</symbol>
	<symbol id="eye-closed">
		<path fill-rule="evenodd" d="M4.324 3.176l-.898.898 3.867 3.848 8.105 8.105 4.278 4.297.898-.898-3.965-3.965c2.561-1.304 4.47-3.142 4.59-3.262l.41-.41-.39-.45C21.058 11.153 17.247 6.75 12 6.75c-1.245 0-2.405.261-3.457.645l-4.219-4.22zM12 8c1.353 0 2.6.347 3.71.84a4.37 4.37 0 0 1 .665 2.285 4.351 4.351 0 0 1-1.152 2.95l-1.778-1.778c.26-.32.43-.728.43-1.172A1.879 1.879 0 0 0 12 9.25c-.444 0-.852.17-1.172.43L9.54 8.39C10.313 8.16 11.131 8 12 8zm-5.86.547C4.118 9.79 2.873 11.232 2.782 11.34l-.39.45.41.41c.178.177 4.26 4.164 8.613 4.51h.04c.18.016.365.04.546.04.18 0 .366-.024.547-.04h.039c.498-.038.998-.128 1.484-.253l-1.074-1.074a3.99 3.99 0 0 1-.488.078l-.078.02a5.05 5.05 0 0 1-.86 0l-.058-.02a4.364 4.364 0 0 1-3.887-4.336c0-.334.042-.657.117-.977L6.141 8.547zm.41 1.23c-.11.44-.175.887-.175 1.348 0 1.008.273 1.95.742 2.773a20.4 20.4 0 0 1-2.988-2.187A15.327 15.327 0 0 1 6.55 9.777zm10.9 0a14.877 14.877 0 0 1 2.402 1.953 20.174 20.174 0 0 1-2.97 2.168 5.58 5.58 0 0 0 .743-2.773c0-.459-.068-.908-.176-1.348zM12 10.5c.344 0 .625.28.625.625a.583.583 0 0 1-.078.273l-.82-.82A.583.583 0 0 1 12 10.5z" stroke="none" />
	</symbol>
	<symbol id="user">
		<path d="M12,13.5A6.75,6.75,0,1,0,5.25,6.75,6.75,6.75,0,0,0,12,13.5ZM18,15H15.417a8.16,8.16,0,0,1-6.835,0H6a6,6,0,0,0-6,6v.75A2.251,2.251,0,0,0,2.25,24h19.5A2.251,2.251,0,0,0,24,21.75V21A6,6,0,0,0,18,15Z" fill="#d1d1d1" stroke="none" />
	</symbol>
    <symbol id="info">
        <path fill-rule="evenodd" d="M12.167 2a3.344 3.344 0 0 0-3.334 3.333c0 1.833 1.501 3.334 3.334 3.334 1.832 0 3.333-1.501 3.333-3.334C15.5 3.501 14 2 12.167 2zm0 1.667c.93 0 1.666.735 1.666 1.666 0 .931-.735 1.667-1.666 1.667A1.653 1.653 0 0 1 10.5 5.333c0-.93.736-1.666 1.667-1.666zM8 9.5v4.167h1.667v4.166H8V22h8.333v-4.167h-1.666V9.5H8zm1.667 1.667H13V19.5h1.667v.833h-5V19.5h1.666V12H9.667v-.833z" />
    </symbol>
    <symbol id="lock">
  		<path d="M21.429,10.5H20.143V7.125C20.144,3.19,16.5,0,12,0S3.857,3.19,3.857,7.125V10.5H2.571A2.428,2.428,0,0,0,0,12.75v9A2.428,2.428,0,0,0,2.571,24H21.429A2.428,2.428,0,0,0,24,21.75v-9A2.428,2.428,0,0,0,21.429,10.5Zm-5.571,0H8.143V7.125A3.64,3.64,0,0,1,12,3.75a3.641,3.641,0,0,1,3.858,3.375Z" fill="#d1d1d1" stroke="none" />
	</symbol>
    <symbol id="card">
        <path d="M21.8,3H2.3C1,3,0,4,0,5.3v13.5C0,20,1,21,2.3,21h19.5c1.2,0,2.2-1,2.2-2.2V5.3C24,4,23,3,21.8,3z M2.3,4.5h19.5c0.4,0,0.7,0.3,0.7,0.7v2.2h-21V5.3C1.5,4.8,1.8,4.5,2.3,4.5z M21.8,19.5H2.3c-0.4,0-0.7-0.3-0.7-0.7V12h21v6.7C22.5,19.2,22.2,19.5,21.8,19.5z M3,15h1.5v3H3V15z M6,15h1.5v3H6V15z M9,15h1.5v3H9L9,15z" />
    </symbol>
    <symbol id="flag">
        <path d="M23.3,4.4c-1.4-0.6-2.9-0.9-4.4-0.8c-4.6,0-9.2,2.3-13.9,2.3C3.9,6,2.7,5.8,1.6,5.4c-0.1,0-0.3-0.1-0.4-0.1C0.5,5.4,0,5.9,0,6.5c0,0,0,0,0,0v11.9c0,0.5,0.3,0.9,0.7,1.1c1.4,0.6,2.9,0.9,4.4,0.8c4.6,0,9.2-2.3,13.9-2.3c1.2,0,2.3,0.2,3.5,0.5c0.1,0,0.3,0.1,0.4,0.1c0.7,0,1.2-0.5,1.2-1.2c0,0,0,0,0,0V5.5C24,5.1,23.7,4.6,23.3,4.4z M12,15.6c-1.7,0-3-1.6-3-3.6s1.3-3.6,3-3.6c1.7,0,3,1.6,3,3.6S13.7,15.6,12,15.6z"/>
    </symbol>
    <symbol id="card-alt">
        <path d="M0,19.2c0,0.7,0.5,1.2,1.2,1.2h21.6c0.7,0,1.2-0.5,1.2-1.2l0,0v-12H0V19.2zM16.8,11.4c0-0.3,0.3-0.6,0.6-0.6l0,0H21c0.3,0,0.6,0.3,0.6,0.6v0v1.2c0,0.3-0.3,0.6-0.6,0.6h0h-3.6c-0.3,0-0.6-0.3-0.6-0.6l0,0L16.8,11.4z M16.8,15.9c0-0.2,0.1-0.3,0.3-0.3h4.2c0.2,0,0.3,0.1,0.3,0.3v0.6c0,0.2-0.1,0.3-0.3,0.3h-4.2c-0.2,0-0.3-0.1-0.3-0.3L16.8,15.9z M2.4,12.3c0-0.2,0.1-0.3,0.3-0.3h11.4c0.2,0,0.3,0.1,0.3,0.3v0.6c0,0.2-0.1,0.3-0.3,0.3H2.7c-0.2,0-0.3-0.1-0.3-0.3V12.3z M2.4,15.9c0-0.2,0.1-0.3,0.3-0.3h6.6c0.2,0,0.3,0.1,0.3,0.3v0.6c0,0.2-0.1,0.3-0.3,0.3H2.7c-0.2,0-0.3-0.1-0.3-0.3V15.9zM23.4,3.6H0.6C0.3,3.6,0,3.9,0,4.2V6h24V4.2C24,3.9,23.7,3.6,23.4,3.6C23.4,3.6,23.4,3.6,23.4,3.6L23.4,3.6z"/>
    </symbol>
    <symbol id="wallet">
        <path d="M21.8,18.9v1.2c0,1.3-1,2.3-2.3,2.3H3.3c-1.3,0-2.3-1-2.3-2.3V3.9c0-1.3,1-2.3,2.3-2.3h16.2c1.3,0,2.3,1,2.3,2.3v1.2H11.4c-1.3,0-2.3,1-2.3,2.3v9.2c0,1.3,1,2.3,2.3,2.3c0,0,0,0,0,0H21.8zM11.4,16.6H23V7.4H11.4V16.6z M16,13.7c-1,0-1.7-0.8-1.7-1.7c0-1,0.8-1.7,1.7-1.7c1,0,1.7,0.8,1.7,1.7C17.8,13,17,13.7,16,13.7C16,13.7,16,13.7,16,13.7L16,13.7z"/>
    </symbol>    
    <symbol id="chevron-up">
        <path fill-rule="evenodd" d="M1.702 0.438L6.065 4.783 6.438 5.14 6.81 4.783 11.173 0.438 12.438 1.702 6.438 7.719 0.438 1.702z" transform="rotate(-180 9.438 8.078)"/>
    </symbol>
    <symbol id="chevron-down">
        <path fill-rule="evenodd" d="M1.702 0.438L6.065 4.783 6.438 5.14 6.81 4.783 11.173 0.438 12.438 1.702 6.438 7.719 0.438 1.702z" transform="translate(6 8)"/>
    </symbol>
    <symbol id="chevron-left">
        <path fill-rule="evenodd" d="M1.702 0.438L6.065 4.783 6.438 5.14 6.81 4.783 11.173 0.438 12.438 1.702 6.438 7.719 0.438 1.702z" transform="translate(6 8) rotate(90 6 4)"/>
    </symbol>
    <symbol id="chevron-right">
        <path fill-rule="evenodd" d="M1.702 0.438L6.065 4.783 6.438 5.14 6.81 4.783 11.173 0.438 12.438 1.702 6.438 7.719 0.438 1.702z" transform="translate(6 8) rotate(-90 6 4)"/>
    </symbol>
    <symbol id="envelope">
        <g id="mail_24_24" data-name="mail 24/24" transform="translate(0 -64)">
			<g id="Group_2" data-name="Group 2" transform="translate(0 64)">
			<g id="Group_1" data-name="Group 1">
				<path id="Path_1" data-name="Path 1" d="M7.091,65.46c3.294,2.79,9.074,7.7,10.772,9.228a1,1,0,0,0,1.452,0c1.7-1.532,7.48-6.44,10.774-9.23a.5.5,0,0,0,.07-.69A1.986,1.986,0,0,0,28.59,64h-20a1.985,1.985,0,0,0-1.569.771A.5.5,0,0,0,7.091,65.46Z" transform="translate(-6.59 -64)"/>
				<path id="Path_2" data-name="Path 2" d="M23.71,126.458a.5.5,0,0,0-.533.072c-3.653,3.1-8.315,7.066-9.782,8.388a2.025,2.025,0,0,1-2.791,0c-1.563-1.409-6.8-5.859-9.781-8.387a.5.5,0,0,0-.823.381v12.574a2,2,0,0,0,2,2H22a2,2,0,0,0,2-2V126.912A.5.5,0,0,0,23.71,126.458Z" transform="translate(0 -123.486)"/>
			</g>
			</g>
		</g>
    </symbol>
	<symbol id="phone">
        <g id="Group_3" data-name="Group 3">
			<path id="Path_3" data-name="Path 3" d="M22.074,15.753a13.626,13.626,0,0,1-4.279-.682,1.956,1.956,0,0,0-1.9.4l-2.7,2.037a14.913,14.913,0,0,1-6.705-6.7L8.466,8.178a1.94,1.94,0,0,0,.477-1.965,13.647,13.647,0,0,1-.684-4.286A1.928,1.928,0,0,0,6.333,0H1.926A1.928,1.928,0,0,0,0,1.926,22.1,22.1,0,0,0,22.074,24,1.928,1.928,0,0,0,24,22.074v-4.4A1.928,1.928,0,0,0,22.074,15.753Z"/>
		</g>
    </symbol>
	<symbol id="cross">
        <path fill-rule="evenodd" d="M4.815 3.64L3.64 4.814 10.824 12l-7.185 7.185 1.176 1.176L12 13.176l7.185 7.185 1.176-1.176L13.176 12l7.185-7.185-1.176-1.176L12 10.824z"/>
    </symbol>
    <symbol id="flag-alert">
        <g fill-rule="evenodd" transform="translate(3 2)">
            <ellipse cx="5" cy="19" fill="#E4E5E7" rx="4" ry="1"/>
            <g fill="#4C4C4C" transform="translate(3)">
                <path d="M1.333 2.667h1.333v16.5H1.333z"/>
                <circle cx="2" cy="2" r="2"/>
            </g>
            <path d="M10.963 10.163l5.595-1.584-5.595-1.593z"/>
            <path fill="#000" fill-opacity=".16" d="M10.963 10.163l5.595-1.584-5.595-1.593z"/>
            <path d="M12.653 9.11l-1.69 1.053V9.11z"/>
            <path fill="#000" fill-opacity=".48" d="M12.653 9.11l-1.69 1.053V9.11z"/>
            <path d="M5.3 4v7.188l7.353-2.078V6.031z"/>
            <g fill-rule="nonzero">
                <path fill="#388E3C" d="M3.69 19.308c0-1.775 1.656-3.247 2.052-3.553-.194.29-.684.837-.684 3.556l-1.367-.003z"/>
                <path fill="#388E3C" d="M4.604 19.533c0-1.521 2.497-3.494 3.19-3.777-.384.26-1.824 1.586-1.824 3.777H4.604z"/>
                <path fill="#4CAF50" d="M3.36 17.193c.079.169.14.339.193.51.53.566.973 1.222.973 1.83l.418-.002a5.196 5.196 0 0 0-.317-1.25 5.17 5.17 0 0 0-.672-1.2 5.975 5.975 0 0 0-1.068-1.094 6.362 6.362 0 0 0-1.498-.898c.514.288.904.633 1.23.988.322.357.566.733.742 1.116zm.696 2.339v.003l.888-.003h-.888z"/>
                <path fill="#388E3C" d="M3.445 19.533c0-2.158-1.265-3.507-1.577-3.777.402.231 2.998 2.256 2.998 3.777H3.445z"/>
                <path fill="#8BC34A" d="M5.833 19.533c0-1.865 2.301-3.37 2.667-3.555-.294.235-1.436 1.504-1.436 3.555h-1.23zm-3.301 0c0-2.056-1.64-3.326-2.032-3.555.477.178 3.556 1.743 3.556 3.555H2.532z"/>
            </g>
        </g>
    </symbol>
    <symbol id="magnifying-glass">
        <path d="M22.3,23.1c-0.5,0-0.9-0.2-1.2-0.5l-3.3-3.1l0,0l0,0c-5,3.4-11.9,2.4-15.6-2.2s-2.5-11,2.4-14.4
    	s11.9-2.4,15.6,2.2c2.9,3.6,2.9,8.5,0,12.1l0,0l3.3,3.1c0.7,0.6,0.7,1.6,0,2.2C23.2,22.9,22.7,23.1,22.3,23.1z M11.1,3.9
    	c-4.4,0-8,3.3-8,7.3c0,4.1,3.6,7.3,8,7.3c4.4,0,8-3.3,8-7.3C19.1,7.2,15.5,3.9,11.1,3.9z"/>
    </symbol>
    <symbol id="sign-out-line">
        <path fill-rule="evenodd" d="M12.59 13l-2.3 2.29c-.19.188-.296.443-.296.71 0 .267.107.522.296.71.188.19.443.296.71.296.267 0 .522-.107.71-.296l4-4c.091-.095.162-.207.21-.33.1-.243.1-.517 0-.76-.048-.123-.119-.235-.21-.33l-4-4c-.254-.254-.623-.353-.97-.26-.346.093-.617.364-.71.71-.093.347.006.716.26.97l2.3 2.29H3c-.552 0-1 .448-1 1s.448 1 1 1h9.59zM12 2c-3.813-.017-7.303 2.136-9 5.55-.249.497-.047 1.101.45 1.35.497.249 1.101.047 1.35-.45 1.75-3.533 5.813-5.265 9.573-4.08 3.76 1.185 6.097 4.933 5.506 8.831C19.287 17.1 15.943 19.985 12 20c-3.043.013-5.825-1.716-7.16-4.45-.249-.497-.853-.699-1.35-.45-.497.249-.699.853-.45 1.35 2.194 4.416 7.28 6.573 11.98 5.082 4.7-1.492 7.611-6.187 6.858-11.06C21.124 5.599 16.93 2.002 12 2z" opacity=".9"/>
    </symbol>
    <symbol id="cash-out-outline">
        <path fill-rule="evenodd" d="M10.6 6.636l.49-.536v3.264c0 .502.408.909.91.909s.91-.407.91-.91V6.1l.49.5c.167.188.404.3.656.306.251.007.494-.09.671-.27.172-.17.27-.403.27-.645s-.098-.475-.27-.646l-2.082-2.081c-.086-.083-.188-.148-.3-.191-.22-.091-.47-.091-.69 0-.112.043-.214.108-.3.19L9.273 5.31c-.367.367-.367.96 0 1.327.366.367.96.367 1.327 0zm1.4 5.455c-1.506 0-2.727 1.221-2.727 2.727 0 1.506 1.22 2.727 2.727 2.727 1.506 0 2.727-1.22 2.727-2.727 0-1.506-1.22-2.727-2.727-2.727zm0 3.636c-.502 0-.91-.407-.91-.909s.408-.909.91-.909.91.407.91.91c0 .501-.408.908-.91.908zm-6.364-.909c0 .502.407.91.91.91.502 0 .909-.408.909-.91s-.407-.909-.91-.909c-.502 0-.909.407-.909.91zm12.728 0c0-.502-.407-.909-.91-.909-.502 0-.909.407-.909.91 0 .501.407.908.91.908.502 0 .909-.407.909-.909zm.909-6.363h-3.637c-.502 0-.909.407-.909.909s.407.909.91.909h3.636c.502 0 .909.407.909.909v7.273c0 .502-.407.909-.91.909H4.728c-.502 0-.909-.407-.909-.91v-7.272c0-.502.407-.91.91-.91h3.636c.502 0 .909-.406.909-.908s-.407-.91-.91-.91H4.728C3.221 8.455 2 9.677 2 11.183v7.273c0 1.506 1.221 2.727 2.727 2.727h14.546c1.506 0 2.727-1.221 2.727-2.727v-7.273c0-1.506-1.221-2.727-2.727-2.727z" opacity=".9"/>
    </symbol>
    <symbol id="user-outline">
        <path fill-rule="evenodd" d="M15.638 12.71c2.009-1.58 2.795-4.26 1.959-6.675C16.76 3.62 14.486 2 11.93 2 9.375 2 7.1 3.62 6.264 6.035c-.836 2.415-.05 5.094 1.959 6.674-3.421 1.37-5.81 4.513-6.217 8.176-.06.551.338 1.048.89 1.109.552.06 1.048-.338 1.109-.89.454-4.045 3.875-7.102 7.945-7.102s7.491 3.057 7.946 7.102c.056.509.487.893 1 .89h.11c.544-.063.937-.554.879-1.1-.409-3.673-2.811-6.821-6.247-8.185zM11.93 12c-2.208 0-3.997-1.79-3.997-3.998s1.79-3.998 3.997-3.998c2.208 0 3.998 1.79 3.998 3.998 0 1.06-.421 2.077-1.17 2.827-.75.75-1.767 1.17-2.828 1.17z" opacity=".9"/>
    </symbol>
    <symbol id="chat-box-outline">
        <path fill-rule="evenodd" d="M17.238 8.667H7.714c-.526 0-.952.426-.952.952s.426.952.952.952h9.524c.526 0 .952-.426.952-.952s-.426-.952-.952-.952zm-3.81 3.81H7.715c-.526 0-.952.426-.952.952s.426.952.952.952h5.715c.526 0 .952-.426.952-.952s-.426-.953-.952-.953zM12.477 2c-5.26 0-9.524 4.264-9.524 9.524-.008 2.199.754 4.332 2.153 6.028L3.2 19.457c-.27.274-.35.684-.2 1.038.162.35.52.569.905.553h8.571c5.26 0 9.524-4.264 9.524-9.524C22 6.264 17.736 2 12.476 2zm0 17.143H6.2l.886-.886c.369-.371.369-.971 0-1.343-2.572-2.568-2.97-6.596-.953-9.62 2.017-3.023 5.89-4.2 9.248-2.811 3.36 1.388 5.27 4.956 4.563 8.522-.707 3.565-3.833 6.135-7.468 6.138z" opacity=".9"/>
    </symbol>
    <symbol id="mobile-outline">
        <path fill-rule="evenodd" d="M12.71 16.29l-.15-.12c-.056-.038-.116-.068-.18-.09L12.2 16c-.33-.069-.671.033-.91.27-.088.097-.16.209-.21.33-.155.373-.07.802.214 1.088.284.286.712.374 1.086.222.12-.058.23-.132.33-.22.284-.288.367-.718.21-1.09-.05-.116-.121-.22-.21-.31zM16 2H8C6.343 2 5 3.343 5 5v14c0 1.657 1.343 3 3 3h8c1.657 0 3-1.343 3-3V5c0-1.657-1.343-3-3-3zm1 17c0 .552-.448 1-1 1H8c-.552 0-1-.448-1-1V5c0-.552.448-1 1-1h8c.552 0 1 .448 1 1v14z"/>
    </symbol>
    <symbol id="user-square-outline">
        <path fill-rule="evenodd" d="M14.81 12.28c.633-.68.99-1.571 1-2.5 0-2.088-1.692-3.78-3.78-3.78S8.25 7.692 8.25 9.78c.01.929.367 1.82 1 2.5-1.79.892-3.012 2.624-3.25 4.61-.06.552.338 1.05.89 1.11.552.06 1.05-.338 1.11-.89.247-2.005 1.95-3.511 3.97-3.511 2.02 0 3.723 1.506 3.97 3.511.058.533.525.925 1.06.89h.11c.546-.063.939-.554.88-1.1-.22-1.975-1.414-3.709-3.18-4.62zM12 11.56c-.72 0-1.369-.434-1.645-1.099-.275-.665-.123-1.43.386-1.94.51-.509 1.275-.661 1.94-.386.665.276 1.099.925 1.099 1.645 0 .983-.797 1.78-1.78 1.78zM19 2H5C3.343 2 2 3.343 2 5v14c0 1.657 1.343 3 3 3h14c1.657 0 3-1.343 3-3V5c0-1.657-1.343-3-3-3zm1 17c0 .552-.448 1-1 1H5c-.552 0-1-.448-1-1V5c0-.552.448-1 1-1h14c.552 0 1 .448 1 1v14z"/>
    </symbol>
    <symbol id="calendar-normal-outline">
        <path fill-rule="evenodd" d="M19 4h-2V3c0-.552-.448-1-1-1s-1 .448-1 1v1H9V3c0-.552-.448-1-1-1s-1 .448-1 1v1H5C3.343 4 2 5.343 2 7v12c0 1.657 1.343 3 3 3h14c1.657 0 3-1.343 3-3V7c0-1.657-1.343-3-3-3zm1 15c0 .552-.448 1-1 1H5c-.552 0-1-.448-1-1v-7h16v7zm0-9H4V7c0-.552.448-1 1-1h2v1c0 .552.448 1 1 1s1-.448 1-1V6h6v1c0 .552.448 1 1 1s1-.448 1-1V6h2c.552 0 1 .448 1 1v3z"/>
    </symbol>
    <symbol id="radio-fill">
        <path fill-rule="evenodd" d="M12 2C6.477 2 2 6.477 2 12s4.477 10 10 10 10-4.477 10-10c0-2.652-1.054-5.196-2.929-7.071C17.196 3.054 14.652 2 12 2zm0 6c-2.21 0-4 1.79-4 4s1.79 4 4 4 4-1.79 4-4c0-1.06-.421-2.078-1.172-2.828C14.078 8.422 13.061 8 12 8z"/>
    </symbol>
    <symbol id="money-bill-outline">
        <path fill-rule="evenodd" d="M6.545 11.455c-.502 0-.909.407-.909.909s.407.909.91.909c.502 0 .909-.407.909-.91 0-.501-.407-.908-.91-.908zm10.91 0c-.503 0-.91.407-.91.909s.407.909.91.909c.502 0 .909-.407.909-.91 0-.501-.407-.908-.91-.908zM19.273 6H4.727C3.221 6 2 7.221 2 8.727V16c0 1.506 1.221 2.727 2.727 2.727h14.546C20.779 18.727 22 17.507 22 16V8.727C22 7.221 20.779 6 19.273 6zm.909 10c0 .502-.407.91-.91.91H4.728c-.502 0-.909-.408-.909-.91V8.727c0-.502.407-.909.91-.909h14.545c.502 0 .909.407.909.91V16zM12 9.636c-1.506 0-2.727 1.221-2.727 2.728 0 1.506 1.22 2.727 2.727 2.727 1.506 0 2.727-1.221 2.727-2.727 0-1.507-1.22-2.728-2.727-2.728zm0 3.637c-.502 0-.91-.407-.91-.91 0-.501.408-.908.91-.908s.91.407.91.909-.408.909-.91.909z"/>
    </symbol>
    <symbol id="back-arrow-with-circle">
        <path fill-rule="evenodd" d="M8.29 11.29c-.091.095-.162.207-.21.33-.1.243-.1.517 0 .76.048.123.119.235.21.33l3 3c.392.392 1.028.392 1.42 0 .392-.392.392-1.028 0-1.42L11.41 13H15c.552 0 1-.448 1-1s-.448-1-1-1h-3.59l1.3-1.29c.19-.188.296-.443.296-.71 0-.267-.107-.522-.296-.71-.188-.19-.443-.296-.71-.296-.267 0-.522.107-.71.296l-3 3zM2 12c0 5.523 4.477 10 10 10s10-4.477 10-10S17.523 2 12 2C9.348 2 6.804 3.054 4.929 4.929 3.054 6.804 2 9.348 2 12zm18 0c0 4.418-3.582 8-8 8s-8-3.582-8-8 3.582-8 8-8 8 3.582 8 8z"/>
    </symbol>
    <symbol id="cash-in-outline">
        <path fill-rule="evenodd" d="M12 12.09c-1.506 0-2.727 1.222-2.727 2.728 0 1.506 1.22 2.727 2.727 2.727 1.506 0 2.727-1.22 2.727-2.727 0-1.506-1.22-2.727-2.727-2.727zm0 3.637c-.502 0-.91-.407-.91-.909s.408-.909.91-.909.91.407.91.91c0 .501-.408.908-.91.908zm-.645-5.718c.086.083.188.148.3.191.22.097.47.097.69 0 .112-.043.214-.108.3-.19l2.082-2.046c.367-.367.367-.961 0-1.328-.366-.366-.96-.366-1.327 0l-.49.537V3.909c0-.502-.408-.909-.91-.909s-.91.407-.91.91v3.263l-.49-.537c-.367-.366-.96-.366-1.327 0-.367.367-.367.961 0 1.328l2.082 2.045zm7.009 4.81c0-.503-.407-.91-.91-.91-.502 0-.909.407-.909.91 0 .501.407.908.91.908.502 0 .909-.407.909-.909zm.909-6.364h-2.728c-.502 0-.909.407-.909.909s.407.909.91.909h2.727c.502 0 .909.407.909.909v7.273c0 .502-.407.909-.91.909H4.728c-.502 0-.909-.407-.909-.91v-7.272c0-.502.407-.91.91-.91h2.727c.502 0 .909-.406.909-.908s-.407-.91-.91-.91H4.728C3.221 8.455 2 9.677 2 11.183v7.273c0 1.506 1.221 2.727 2.727 2.727h14.546c1.506 0 2.727-1.221 2.727-2.727v-7.273c0-1.506-1.221-2.727-2.727-2.727zM5.636 14.818c0 .502.407.91.91.91.502 0 .909-.408.909-.91s-.407-.909-.91-.909c-.502 0-.909.407-.909.91z" opacity=".9"/>
    </symbol>
    <symbol id="box-outline">
         <path  fill-rule="evenodd" d="M16.98 5.561c-.006-.026-.006-.054 0-.08-.005-.023-.005-.047 0-.07v-.09l-.06-.152c-.025-.04-.056-.078-.091-.11l-.09-.08h-.051l-3.962-2.504L8.986.162C8.9.093 8.801.042 8.694.012h-.08c-.09-.016-.182-.016-.271 0h-.101c-.117.025-.229.07-.332.13L.4 4.817l-.091.07-.09.081-.101.07-.05.06-.06.152v.15c-.01.067-.01.135 0 .202v8.777c-.001.348.177.67.472.855l7.54 4.665.152.06h.08c.17.054.353.054.523 0h.08l.151-.06 7.48-4.595c.295-.184.474-.507.473-.854V5.672s.02-.07.02-.11zM8.442 2.193l1.79 1.106-5.62 3.479-1.8-1.106 5.63-3.479zM7.438 17.275l-5.53-3.378V7.472l5.53 3.418v6.385zm1.005-8.154l-1.92-1.157 5.62-3.489 1.93 1.197-5.63 3.449zm6.536 4.745l-5.53 3.44V10.89l5.53-3.418v6.394z" transform="translate(4 2)"/>          
    </symbol>
    <symbol id="user-alt-outline">
        <path fill-rule="evenodd" d="M10.273 8.382c.981-.85 1.545-2.084 1.545-3.382 0-2.51-2.035-4.545-4.545-4.545S2.727 2.49 2.727 5c0 1.298.564 2.532 1.546 3.382C1.673 9.559.003 12.147 0 15c0 .502.407.91.91.91.501 0 .908-.408.908-.91 0-3.012 2.442-5.455 5.455-5.455 3.012 0 5.454 2.443 5.454 5.455 0 .502.407.91.91.91.501 0 .908-.408.908-.91-.002-2.853-1.673-5.441-4.272-6.618zm-3-.655c-1.507 0-2.728-1.22-2.728-2.727 0-1.506 1.221-2.727 2.728-2.727C8.779 2.273 10 3.493 10 5c0 .723-.287 1.417-.799 1.928-.511.512-1.205.8-1.928.8zm8.854.291c1.189-1.338 1.481-3.25.747-4.882-.733-1.632-2.357-2.682-4.147-2.681-.502 0-.909.407-.909.909s.407.909.91.909c1.506 0 2.727 1.22 2.727 2.727-.003.972-.523 1.869-1.364 2.355-.274.158-.446.447-.455.763-.007.314.147.61.41.782l.354.236.118.064c2.238 1.061 3.656 3.324 3.637 5.8 0 .502.407.91.909.91s.909-.408.909-.91c.015-2.837-1.44-5.478-3.846-6.982z" transform="translate(2 4)"/>
    </symbol>
    <symbol id="cog-alternate-outline">
        <path fill-rule="evenodd" d="M18.043 10.661c-.331-.377-.331-.942 0-1.32l1.28-1.44c.29-.322.338-.795.12-1.17l-2-3.46c-.215-.374-.647-.568-1.07-.48l-1.88.38c-.495.103-.988-.18-1.15-.66l-.61-1.83c-.137-.407-.52-.68-.95-.68h-4c-.448-.023-.857.255-1 .68l-.56 1.83c-.161.48-.654.763-1.15.66l-1.93-.38c-.4-.056-.794.133-1 .48l-2 3.46c-.223.37-.182.843.1 1.17l1.27 1.44c.332.378.332.943 0 1.32l-1.27 1.44c-.282.328-.323.8-.1 1.17l2 3.46c.216.375.648.568 1.07.48l1.88-.38c.496-.102.989.181 1.15.66l.61 1.83c.143.426.552.704 1 .68h4c.43.001.813-.272.95-.68l.61-1.83c.162-.479.655-.762 1.15-.66l1.88.38c.423.088.855-.105 1.07-.48l2-3.46c.218-.374.17-.847-.12-1.17l-1.35-1.44zm-1.49 1.34l.8.9-1.28 2.22-1.18-.24c-1.49-.304-2.973.555-3.45 2l-.38 1.12h-2.56l-.36-1.14c-.476-1.445-1.959-2.304-3.45-2l-1.18.24-1.3-2.21.8-.9c1.019-1.138 1.019-2.86 0-4l-.8-.9 1.28-2.2 1.18.24c1.491.305 2.974-.555 3.45-2l.38-1.13h2.56l.38 1.14c.477 1.445 1.96 2.305 3.45 2l1.18-.24 1.28 2.22-.8.9c-1.006 1.136-1.006 2.845 0 3.98zm-6.77-6c-2.209 0-4 1.791-4 4 0 2.21 1.791 4 4 4 2.21 0 4-1.79 4-4 0-1.06-.421-2.078-1.171-2.828S10.844 6 9.783 6zm0 6c-1.104 0-2-.895-2-2 0-1.104.896-2 2-2 1.105 0 2 .896 2 2 0 1.105-.895 2-2 2z" transform="translate(2 2)"/>
    </symbol>
    <symbol id="lock-open-outline">
        <path fill-rule="evenodd" d="M8 11c-.624-.007-1.186.374-1.409.957-.223.582-.06 1.242.409 1.653V15c0 .552.448 1 1 1s1-.448 1-1v-1.39c.469-.411.632-1.07.409-1.653-.223-.583-.785-.964-1.409-.957zm5-4H5V5c-.003-1.214.726-2.31 1.848-2.777 1.12-.467 2.413-.211 3.272.647.376.384.645.86.78 1.38.09.347.357.62.702.715.344.096.714 0 .97-.25.255-.25.357-.618.268-.965-.228-.865-.68-1.655-1.31-2.29C10.099.033 7.95-.392 6.083.383 4.217 1.158 3 2.979 3 5v2c-1.657 0-3 1.343-3 3v7c0 1.657 1.343 3 3 3h10c1.657 0 3-1.343 3-3v-7c0-1.657-1.343-3-3-3zm1 10c0 .552-.448 1-1 1H3c-.552 0-1-.448-1-1v-7c0-.552.448-1 1-1h10c.552 0 1 .448 1 1v7z" transform="translate(4 2)"/>
    </symbol>
    <symbol id="eye-slash-outline">
        <path fill-rule="evenodd" d="M8.94 4.082c.35-.054.704-.08 1.06-.08 3.178 0 6.166 2.289 7.905 5.997-.266.564-.566 1.112-.9 1.64-.105.163-.16.354-.16.55.005.447.308.838.74.954.434.116.891-.07 1.12-.455.466-.732.87-1.5 1.21-2.299.108-.252.108-.538 0-.79-2.02-4.687-5.818-7.596-9.916-7.596-.469-.002-.937.038-1.4.12-.356.06-.654.307-.78.647s-.061.72.17 1c.231.278.594.413.95.352v-.04zM1.713.294C1.46.04 1.09-.059.743.034.399.127.128.398.035.744c-.093.346.006.716.26.97l3.098 3.088C1.98 6.162.854 7.794.084 9.599c-.111.255-.111.545 0 .8 2.02 4.688 5.817 7.596 9.915 7.596 1.796-.012 3.55-.547 5.048-1.539l3.238 3.248c.188.19.443.296.71.296.266 0 .522-.106.71-.296.189-.187.295-.443.295-.71 0-.266-.106-.521-.296-.709L1.714.294zM8.07 9.479l2.449 2.45c-.169.048-.344.071-.52.07-1.104 0-1.999-.896-1.999-2-.002-.176.022-.35.07-.52zM10 15.996c-3.18 0-6.168-2.289-7.897-5.997.646-1.425 1.562-2.712 2.699-3.788l1.769 1.79c-.854 1.557-.577 3.491.679 4.747 1.256 1.256 3.19 1.533 4.748.68l1.59 1.569c-1.089.64-2.326.985-3.589 1z" transform="translate(2 2)"/>
    </symbol>
    <symbol id="eye-open-outline">
        <path fill-rule="evenodd" d="M19.917 7.597C17.897 2.91 14.099 0 10 0S2.103 2.909.083 7.597c-.11.255-.11.545 0 .8 2.02 4.688 5.818 7.597 9.917 7.597s7.897-2.909 9.917-7.597c.11-.255.11-.545 0-.8zM10 13.995c-3.169 0-6.168-2.29-7.897-5.998C3.833 4.29 6.83 2 10 2c3.169 0 6.168 2.29 7.897 5.998-1.73 3.709-4.728 5.998-7.897 5.998zM10 4c-2.208 0-3.999 1.79-3.999 3.998 0 2.209 1.79 3.999 3.999 3.999 2.208 0 3.999-1.79 3.999-3.999 0-1.06-.422-2.077-1.172-2.827S11.06 3.999 10 3.999zm0 5.998c-1.104 0-2-.896-2-2s.896-2 2-2 2 .896 2 2-.896 2-2 2z" transform="translate(2 4)"/>
    </symbol>
    <symbol id="bank-outline">
        <path fill-rule="evenodd" d="M20.19 10.238c.24 0 .47-.095.64-.265.17-.17.265-.4.265-.64V6.62c0-.39-.249-.735-.618-.858l-8.143-2.714c-.186-.062-.387-.062-.573 0L3.618 5.76C3.25 5.884 3 6.23 3 6.62v2.714c0 .24.095.47.265.64.17.17.4.265.64.265h.905v6.5C3.728 17.12 3.004 18.14 3 19.286v1.81c0 .24.095.47.265.64.17.169.4.264.64.264H20.19c.24 0 .47-.095.64-.265.17-.17.265-.4.265-.64v-1.81c-.003-1.146-.728-2.166-1.81-2.547v-6.5h.905zm-.904 9.952H4.81v-.904c0-.5.405-.905.904-.905h12.667c.5 0 .904.405.905.905v.904zM6.619 16.571v-6.333h1.81v6.333h-1.81zm3.62 0v-6.333h3.618v6.333h-3.619zm5.428 0v-6.333h1.81v6.333h-1.81zM4.81 8.43V7.27l7.238-2.413 7.238 2.413V8.43H4.81z"/>
    </symbol>
    <symbol id="mail">
        <path fill-rule="evenodd" d="M2 5v13.846h20V5H2zm3.317 1.538h13.366L12 10.986 5.317 6.538zm-1.779.674l8.03 5.36.432.265.433-.265 8.029-5.36v10.096H3.538V7.212z" />
    </symbol>
    <symbol id="lock-outline">
        <path fill-rule="evenodd" d="M11.619 2C8.454 2 5.905 4.549 5.905 7.714v.953C4.864 8.667 4 9.53 4 10.57v9.524C4 21.136 4.864 22 5.905 22h11.428c1.041 0 1.905-.864 1.905-1.905v-9.524c0-1.04-.864-1.904-1.905-1.904v-.953C17.333 4.55 14.785 2 11.62 2zm0 1.905c2.168 0 3.81 1.641 3.81 3.81v.952h-7.62v-.953c0-2.168 1.642-3.81 3.81-3.81zM5.905 10.57h11.428v9.524H5.905v-9.524zm5.714 2.858c-1.048 0-1.905.857-1.905 1.904 0 1.048.857 1.905 1.905 1.905s1.905-.857 1.905-1.905c0-1.047-.857-1.904-1.905-1.904z"/>
    </symbol>
    <symbol id="chevron-up-fill">
        <path d="M1.702 0.438L6.065 4.783 6.438 5.14 6.81 4.783 11.173 0.438 12.438 1.702 6.438 7.719 0.438 1.702z" transform="translate(6 8) rotate(-180 6.438 4.078)"/>
    </symbol>
    <symbol id="user-circle-outline">
        <path d="M10 0C4.486 0 0 4.486 0 10s4.486 10 10 10 10-4.486 10-10S15.514 0 10 0zm0 1.538c4.681 0 8.462 3.78 8.462 8.462 0 4.681-3.78 8.462-8.462 8.462-4.681 0-8.462-3.78-8.462-8.462 0-4.681 3.78-8.462 8.462-8.462zm0 2.308c-2.115 0-3.846 1.73-3.846 3.846 0 1.166.544 2.203 1.37 2.909-1.73.898-2.909 2.707-2.909 4.784h1.539c0-2.134 1.713-3.847 3.846-3.847s3.846 1.713 3.846 3.847h1.539c0-2.077-1.178-3.886-2.909-4.784.826-.706 1.37-1.743 1.37-2.909 0-2.115-1.73-3.846-3.846-3.846zm0 1.539c1.283 0 2.308 1.024 2.308 2.307S11.283 10 10 10 7.692 8.975 7.692 7.692 8.717 5.385 10 5.385z" transform="translate(2 2)"/>
    </symbol>
    <symbol id="search-outline">
        <path d="M19.72 18.3l-3.709-3.678C19 10.896 18.555 5.484 14.998 2.296 11.44-.892 6.012-.743 2.634 2.634-.743 6.012-.892 11.44 2.296 14.998c3.188 3.557 8.6 4.002 12.326 1.013L18.3 19.69c.188.19.443.296.71.296.266 0 .522-.107.71-.296.374-.387.374-1.002 0-1.389zM9.015 16.011c-3.864 0-6.996-3.132-6.996-6.995 0-3.864 3.132-6.996 6.996-6.996 3.863 0 6.995 3.132 6.995 6.996 0 1.855-.737 3.634-2.049 4.946-1.312 1.312-3.091 2.05-4.946 2.05z" transform="translate(2 2)"/>
    </symbol>
    <symbol id="plus-circle-outline">
        <path d="M10 0C4.486 0 0 4.486 0 10s4.486 10 10 10 10-4.486 10-10S15.514 0 10 0zm0 1.538c4.681 0 8.462 3.78 8.462 8.462 0 4.681-3.78 8.462-8.462 8.462-4.681 0-8.462-3.78-8.462-8.462 0-4.681 3.78-8.462 8.462-8.462zm-.77 3.847V9.23H5.386v1.538H9.23v3.846h1.538V10.77h3.846V9.231H10.77V5.385H9.231z" transform="translate(2 2)"/>
    </symbol>
    <symbol id="ellipsis-horizontal">
        <path fill-rule="evenodd" d="M5.333 11a1.333 1.333 0 1 0-.001 2.665A1.333 1.333 0 0 0 5.333 11zM12 11a1.333 1.333 0 1 0-.002 2.665A1.333 1.333 0 0 0 12 11zm6.667 0a1.333 1.333 0 1 0-.002 2.665A1.333 1.333 0 0 0 18.667 11z"/>
    </symbol>
    <symbol id="edit-outline">
        <path d="M18.994 10.003c-.552 0-1 .447-1 1V17c0 .552-.447 1-.999 1H3c-.552 0-1-.448-1-1V3.005c0-.552.448-1 1-1h5.998c.553 0 1-.447 1-1 0-.552-.447-1-1-1H3C1.343.006 0 1.35 0 3.006V17C0 18.657 1.343 20 3 20h13.995c1.656 0 3-1.343 3-3v-5.997c0-.553-.448-1-1-1zM4 10.763V15c0 .553.447 1 1 1h4.238c.266.002.521-.103.71-.29l6.918-6.928 2.84-2.779c.189-.188.295-.443.295-.71 0-.266-.106-.522-.296-.71L15.466.296c-.188-.19-.444-.296-.71-.296-.267 0-.522.106-.71.296l-2.82 2.829-6.937 6.928c-.187.189-.292.444-.29.71zm10.757-8.348l2.829 2.83-1.42 1.419-2.829-2.83 1.42-1.419zm-8.758 8.758l5.929-5.929 2.829 2.83-5.929 5.928H5.998v-2.83z" transform="translate(2 2)"/>
    </symbol>
    <symbol id="trash-outline">
        <path d="M7 16c.552 0 1-.448 1-1V9c0-.552-.448-1-1-1s-1 .448-1 1v6c0 .552.448 1 1 1zM17 4h-4V3c0-1.657-1.343-3-3-3H8C6.343 0 5 1.343 5 3v1H1c-.552 0-1 .448-1 1s.448 1 1 1h1v11c0 1.657 1.343 3 3 3h8c1.657 0 3-1.343 3-3V6h1c.552 0 1-.448 1-1s-.448-1-1-1zM7 3c0-.552.448-1 1-1h2c.552 0 1 .448 1 1v1H7V3zm7 14c0 .552-.448 1-1 1H5c-.552 0-1-.448-1-1V6h10v11zm-3-1c.552 0 1-.448 1-1V9c0-.552-.448-1-1-1s-1 .448-1 1v6c0 .552.448 1 1 1z" transform="translate(3 2)"/>
    </symbol>
    <symbol id="eye-material-outline">
        <path fill="#6A6D77" fill-rule="evenodd" d="M12 5C4.727 5 2 12.273 2 12.273s2.727 7.272 10 7.272 10-7.272 10-7.272S19.273 5 12 5zm0 1.818c4.796 0 7.222 3.88 8.008 5.451-.787 1.561-3.23 5.458-8.008 5.458-4.796 0-7.222-3.879-8.008-5.45.787-1.562 3.23-5.459 8.008-5.459zm0 1.818c-2.008 0-3.636 1.629-3.636 3.637S9.992 15.909 12 15.909s3.636-1.628 3.636-3.636S14.008 8.636 12 8.636zm0 1.819c1.005 0 1.818.813 1.818 1.818 0 1.004-.813 1.818-1.818 1.818-1.005 0-1.818-.814-1.818-1.818 0-1.005.813-1.818 1.818-1.818z"/>
    </symbol>
    <symbol id="calender-normal-line">
        <path d="M17 2h-2V1c0-.552-.448-1-1-1s-1 .448-1 1v1H7V1c0-.552-.448-1-1-1S5 .448 5 1v1H3C1.343 2 0 3.343 0 5v12c0 1.657 1.343 3 3 3h14c1.657 0 3-1.343 3-3V5c0-1.657-1.343-3-3-3zm1 15c0 .552-.448 1-1 1H3c-.552 0-1-.448-1-1v-7h16v7zm0-9H2V5c0-.552.448-1 1-1h2v1c0 .552.448 1 1 1s1-.448 1-1V4h6v1c0 .552.448 1 1 1s1-.448 1-1V4h2c.552 0 1 .448 1 1v3z" transform="translate(2 2)"/>
    </symbol>
    <symbol id="envelope-outline">
        <g id="Envelope/Normal/Unicons/Outline" stroke="none" stroke-width="1" fill-rule="evenodd">
            <g id="envelope" transform="translate(2.000000, 4.000000)" fill="#6A6D77">
                <path d="M17,-8.8817842e-16 L3,-8.8817842e-16 C1.34314575,-8.8817842e-16 -4.4408921e-16,1.34314575 -4.4408921e-16,3 L-4.4408921e-16,13 C-4.4408921e-16,14.6568542 1.34314575,16 3,16 L17,16 C18.6568542,16 20,14.6568542 20,13 L20,3 C20,1.34314575 18.6568542,-8.8817842e-16 17,-8.8817842e-16 Z M16.59,2 L10.71,7.88 C10.5222334,8.06931265 10.2666375,8.17579832 10,8.17579832 C9.73336246,8.17579832 9.4777666,8.06931265 9.29,7.88 L3.41,2 L16.59,2 Z M18,13 C18,13.5522847 17.5522847,14 17,14 L3,14 C2.44771525,14 2,13.5522847 2,13 L2,3.41 L7.88,9.29 C9.05127019,10.4598135 10.9487298,10.4598135 12.12,9.29 L18,3.41 L18,13 Z" id="Shape"></path>
            </g>
        </g>
    <symbol id="coin-rupees-outline">
        <path d="M5.5 11.476c-.125-.244-.25-.488-.375-.61C5 10.622 5 10.378 5 10.256c0-.366.125-.61.5-.854.25-.122.625-.243 1-.243h.125L7 9.646l.25.244c.125 0 .125.122.25.122.25 0 .375-.122.5-.244s.25-.488.25-.853c0-.366 0-.732-.125-.976s-.125-.366-.25-.488h-2.4c-.538 0-.975-.437-.975-.975 0-.54.437-.976.976-.976h9.11c.505 0 .914.41.914.915 0 .505-.41.914-.915.914H10.25c0 .122.125.244.125.366.125.244.125.61.25.976.125 0 .25-.122.375-.122.25-.122.625-.122.875-.122.875 0 1.625.244 2.125.732.5.487.75 1.219.75 2.073 0 .488-.125.975-.375 1.341s-.5.732-.875.976-.75.366-1.125.488-.875.122-1.375.122c-.143 0-.264-.106-.284-.248l-.182-1.334c-.016-.12.067-.23.186-.246l.03-.002c.125 0 .25 0 .5-.122.125 0 .375-.122.5-.244l.375-.365c.125-.122.125-.244.125-.488 0-.366-.125-.488-.25-.732-.25-.122-.375-.244-.75-.244-.25 0-.5 0-.75.122s-.625.244-.875.488-.5.488-.875.61c-.25.122-.375.122-.625.122l1.483 1.849c.363.452.29 1.111-.161 1.474-.043.034-.087.064-.134.091-.6.344-1.364.17-1.754-.401L5.5 11.476zM10 0C4.477 0 0 4.477 0 10s4.477 10 10 10 10-4.477 10-10c0-2.652-1.054-5.196-2.929-7.071C15.196 1.054 12.652 0 10 0zm0 18.182c-4.519 0-8.182-3.663-8.182-8.182S5.481 1.818 10 1.818 18.182 5.481 18.182 10 14.519 18.182 10 18.182z" transform="translate(2 2)"/>
    </symbol>
      <symbol id="info-outline">
        <path fill-rule="evenodd" d="M12 2C6.486 2 2 6.486 2 12s4.486 10 10 10 10-4.486 10-10S17.514 2 12 2zm0 1.538A8.45 8.45 0 0 1 20.462 12 8.45 8.45 0 0 1 12 20.462 8.45 8.45 0 0 1 3.538 12 8.45 8.45 0 0 1 12 3.538zm-.77 3.847v1.538h1.54V7.385h-1.54zm0 3.077v6.153h1.54v-6.153h-1.54z" />
    </symbol>
    <symbol id="reset">
      <path d="M9.973 14.385c1.376-1.592 3.749-1.846 5.43-.583l.006-.1c.05-.394.386-.7.794-.7.442 0 .8.359.8.8v2.4c0 .442-.358.8-.8.8h-2.4c-.442 0-.8-.358-.8-.8 0-.441.358-.8.8-.8h.984c-.454-.507-1.103-.798-1.784-.8-1.066.006-2 .714-2.294 1.739-.294 1.025.123 2.12 1.024 2.69.902.57 2.07.476 2.87-.229.207-.23.528-.319.824-.23.297.09.515.341.561.647.046.306-.088.61-.345.783-1.579 1.39-3.964 1.32-5.458-.16-1.495-1.481-1.587-3.866-.212-5.457zM8 0c2.761 0 5 2.239 5 5v2c1.657 0 3 1.343 3 3v1.612c-.317.028-.615.124-.881.279l-.136.086-.195-.073c-.259-.091-.522-.162-.789-.211L14 10c0-.552-.448-1-1-1H3c-.552 0-1 .448-1 1v7c0 .552.448 1 1 1h4.693c.132.704.405 1.386.817 2.001L3 20c-1.657 0-3-1.343-3-3v-7c0-1.657 1.343-3 3-3V5c0-2.761 2.239-5 5-5zm0 2C6.343 2 5 3.343 5 5v2h6V5c0-1.657-1.343-3-3-3z" transform="translate(4.000000, 2.000000)"/>
    </symbol>
    <symbol id="check-outline">
        <path d="M12.72 6.79l-4.29 4.3-1.65-1.65c-.244-.285-.628-.41-.993-.322-.366.088-.65.373-.739.739-.088.365.037.749.322.993l2.35 2.36c.189.187.444.292.71.29.262-.001.514-.105.7-.29l5-5c.19-.188.296-.443.296-.71 0-.267-.107-.522-.296-.71-.39-.388-1.02-.388-1.41 0zM10 0C4.477 0 0 4.477 0 10s4.477 10 10 10 10-4.477 10-10c0-2.652-1.054-5.196-2.929-7.071C15.196 1.054 12.652 0 10 0zm0 18c-4.418 0-8-3.582-8-8s3.582-8 8-8 8 3.582 8 8c0 2.122-.843 4.157-2.343 5.657S12.122 18 10 18z" transform="translate(2 2)"/>
    </symbol>
    <symbol id="paper-clip">
        <path fill-rule="evenodd" d="M16.333 2c-1.159 0-2.298.45-3.177 1.328l-7.812 7.813c-2.477 2.477-2.477 6.507 0 8.984 2.477 2.477 6.507 2.477 8.984 0l5.208-5.208-1.171-1.172-5.209 5.208c-1.839 1.84-4.801 1.84-6.64 0-1.84-1.84-1.84-4.801 0-6.64L14.328 4.5c1.12-1.12 2.917-1.12 4.037 0s1.12 2.917 0 4.036l-7.813 7.813c-.4.4-1.032.4-1.432 0-.4-.4-.4-1.032 0-1.432l7.161-7.162-1.172-1.172-7.161 7.162c-1.038 1.038-1.038 2.737 0 3.776 1.038 1.038 2.738 1.038 3.776 0l7.812-7.813c1.758-1.757 1.758-4.622 0-6.38C18.658 2.45 17.492 2 16.333 2z"/>
    </symbol>
    </symbol>
    <symbol id="cross-circle-line">
        <path fill-rule="evenodd" d="M12 2C6.486 2 2 6.486 2 12s4.486 10 10 10 10-4.486 10-10S17.514 2 12 2zM9.091 7.986L7.986 9.09 10.894 12l-2.908 2.909 1.105 1.105L12 13.106l2.909 2.908 1.105-1.105L13.106 12l2.908-2.909-1.105-1.105L12 10.894 9.091 7.986z"/>
    </symbol>
    <symbol id="check-normal">
        <path fill-rule="evenodd" d="M11.033.907C10.892.766 10.7.686 10.5.686s-.392.08-.533.221L4.38 6.503 2.033 4.147c-.197-.19-.48-.26-.744-.185-.263.075-.466.286-.533.551-.066.266.015.547.212.737l2.88 2.88c.14.142.332.222.532.222s.392-.08.532-.222l6.12-6.12c.154-.142.242-.342.242-.551 0-.21-.088-.41-.241-.552z" transform="translate(-350 -91) translate(288 90) translate(62) translate(0 1) translate(3 4.5)"/>
    </symbol>
    <symbol id="pause-circle">
        <path d="M8,5 C7.44771525,5 7,5.44771525 7,6 L7,14 C7,14.5522847 7.44771525,15 8,15 C8.55228475,15 9,14.5522847 9,14 L9,6 C9,5.44771525 8.55228475,5 8,5 Z M10,-4.4408921e-16 C4.4771525,-4.4408921e-16 0,4.4771525 0,10 C0,15.5228475 4.4771525,20 10,20 C15.5228475,20 20,15.5228475 20,10 C20,7.3478351 18.9464316,4.80429597 17.0710678,2.92893219 C15.195704,1.0535684 12.6521649,-4.4408921e-16 10,-4.4408921e-16 Z M10,18 C5.581722,18 2,14.418278 2,10 C2,5.581722 5.581722,2 10,2 C14.418278,2 18,5.581722 18,10 C18,12.1217319 17.1571453,14.1565632 15.6568542,15.6568542 C14.1565632,17.1571453 12.1217319,18 10,18 Z M12,5 C11.4477153,5 11,5.44771525 11,6 L11,14 C11,14.5522847 11.4477153,15 12,15 C12.5522847,15 13,14.5522847 13,14 L13,6 C13,5.44771525 12.5522847,5 12,5 Z" transform="translate(2.000000, 2.000000)"></path>
    </symbol>
    <symbol id="play-circle">
        <path d="M14,8.27 L9,5.38 C8.38151503,5.02291704 7.6195556,5.02272142 7.00088737,5.37948677 C6.38221913,5.73625212 6.00073209,6.3958352 6,7.11 L6,12.89 C6.00073215,13.6037984 6.38183192,14.263101 7,14.62 C7.61880215,14.9772656 8.38119785,14.9772656 9,14.62 L14,11.73 C14.6168043,11.3722022 14.9964563,10.7130686 14.9964563,10 C14.9964563,9.28693139 14.6168043,8.62779776 14,8.27 Z M13,10 L8,12.89 L8,7.11 L13,10 Z M10,-4.4408921e-16 C4.4771525,-4.4408921e-16 0,4.4771525 0,10 C0,15.5228475 4.4771525,20 10,20 C15.5228475,20 20,15.5228475 20,10 C20,7.3478351 18.9464316,4.80429597 17.0710678,2.92893219 C15.195704,1.0535684 12.6521649,-4.4408921e-16 10,-4.4408921e-16 Z M10,18 C5.581722,18 2,14.418278 2,10 C2,5.581722 5.581722,2 10,2 C14.418278,2 18,5.581722 18,10 C18,12.1217319 17.1571453,14.1565632 15.6568542,15.6568542 C14.1565632,17.1571453 12.1217319,18 10,18 Z" transform="translate(2.000000, 2.000000)"></path>
    </symbol>
    <symbol id="alert-default">
        <path fill-rule="evenodd" d="M11.692 2c-.85 0-1.538.688-1.538 1.538 0 .067.015.13.024.193-2.66.679-4.64 3.095-4.64 5.961v6.923c0 .436-.333.77-.769.77H4v1.538h5.529c-.087.243-.144.499-.144.77 0 1.264 1.042 2.307 2.307 2.307S14 20.957 14 19.692c0-.27-.057-.526-.144-.769h5.529v-1.538h-.77c-.435 0-.769-.334-.769-.77V9.91c0-2.891-1.932-5.47-4.64-6.178.01-.063.025-.126.025-.193 0-.85-.688-1.538-1.539-1.538zm0 16.923c.433 0 .77.337.77.77 0 .432-.337.769-.77.769-.432 0-.769-.337-.769-.77 0-.432.337-.769.77-.769z"/>
    </symbol>
    <symbol id="alert-success">
        <path fill-rule="evenodd" d="M12 2C6.486 2 2 6.486 2 12s4.486 10 10 10 10-4.486 10-10S17.514 2 12 2zm4.248 6l-6.556 6.557-2.586-2.587L6 13.076l3.139 3.14.553.528.553-.529 7.11-7.11L16.247 8z"/>
    </symbol>
    <symbol id="alert-error">
        <path fill-rule="evenodd" d="M12 2C6.486 2 2 6.486 2 12s4.486 10 10 10 10-4.486 10-10S17.514 2 12 2zM9.091 7.986L7.986 9.09 10.894 12l-2.908 2.909 1.105 1.105L12 13.106l2.909 2.908 1.105-1.105L13.106 12l2.908-2.909-1.105-1.105L12 10.894 9.091 7.986z"/>
    </symbol>  
    <symbol id="alert-warn">
        <path fill-rule="evenodd" d="M12 3.156l-.625 1.072L2.804 19.07 2.2 20.143h19.598l-.603-1.072-8.571-14.843L12 3.156zm-.714 7.701v4.286h1.428v-4.286h-1.428zm0 5v1.429h1.428v-1.429h-1.428z"/>
    </symbol>
    <symbol id="alert-info">
        <path fill-rule="evenodd" d="M12 2C6.486 2 2 6.486 2 12s4.486 10 10 10 10-4.486 10-10S17.514 2 12 2zm-.77 5.385v1.538h1.54V7.385h-1.54zm0 3.077v6.153h1.54v-6.153h-1.54z"/>
    </symbol>
    <symbol id="megaphone">
        <path fill-rule="evenodd" d="M17 0c-.265 0-.52.105-.707.293C16.105.48 16 .735 16 1v.637C14.292 3.754 11.72 4.99 9 5H3C1.344 5.002.002 6.344 0 8v2c.002 1.656 1.344 2.998 3 3h.484L1.08 18.606c-.133.31-.101.664.084.945.185.28.499.45.835.449h4c.4 0 .762-.238.919-.606l2.724-6.356c2.487.183 4.788 1.386 6.357 3.325V17c0 .552.448 1 1 1s1-.448 1-1V1c0-.265-.105-.52-.293-.707C17.52.105 17.265 0 17 0zM3 11c-.552 0-1-.448-1-1V8c0-.552.448-1 1-1h1v4H3zm2.34 7H3.518l2.142-5h1.824l-2.142 5zM16 13.522c-1.972-1.625-4.445-2.516-7-2.522H6V7h3c2.555-.007 5.028-.898 7-2.522v9.044z" transform="translate(3 2)"/>
    </symbol>
    <symbol id="pause-circle">
        <path fill-rule="evenodd" d="M8 5c-.552 0-1 .448-1 1v8c0 .552.448 1 1 1s1-.448 1-1V6c0-.552-.448-1-1-1zm2-5C4.477 0 0 4.477 0 10s4.477 10 10 10 10-4.477 10-10c0-2.652-1.054-5.196-2.929-7.071C15.196 1.054 12.652 0 10 0zm0 18c-4.418 0-8-3.582-8-8s3.582-8 8-8 8 3.582 8 8c0 2.122-.843 4.157-2.343 5.657S12.122 18 10 18zm2-13c-.552 0-1 .448-1 1v8c0 .552.448 1 1 1s1-.448 1-1V6c0-.552-.448-1-1-1z" transform="translate(2.000000, 2.000000)"/>
    </symbol>
    <symbol id="play-circle">
        <path fill-rule="evenodd" d="M14 8.27L9 5.38c-.618-.357-1.38-.357-2 0-.618.356-1 1.016-1 1.73v5.78c0 .714.382 1.373 1 1.73.619.357 1.381.357 2 0l5-2.89c.617-.358.996-1.017.996-1.73 0-.713-.38-1.372-.996-1.73zM13 10l-5 2.89V7.11L13 10zM10 0C4.477 0 0 4.477 0 10s4.477 10 10 10 10-4.477 10-10c0-2.652-1.054-5.196-2.929-7.071C15.196 1.054 12.652 0 10 0zm0 18c-4.418 0-8-3.582-8-8s3.582-8 8-8 8 3.582 8 8c0 2.122-.843 4.157-2.343 5.657S12.122 18 10 18z" transform="translate(2.000000, 2.000000)"/>
    </symbol>
    <symbol id="cross-circle-outline">
        <path d="M13.665 6.335c-.186-.187-.438-.292-.701-.292-.264 0-.516.105-.702.292L10 8.607 7.738 6.335c-.387-.387-1.016-.387-1.403 0s-.387 1.016 0 1.403L8.607 10l-2.272 2.262c-.187.186-.292.438-.292.702 0 .263.105.515.292.7.186.188.438.293.701.293.264 0 .516-.105.702-.292L10 11.393l2.262 2.272c.186.187.438.292.702.292.263 0 .515-.105.7-.292.188-.186.293-.438.293-.701 0-.264-.105-.516-.292-.702L11.393 10l2.272-2.262c.187-.186.292-.438.292-.702 0-.263-.105-.515-.292-.7zm3.319-3.319C14.504.448 10.831-.582 7.377.322c-3.454.904-6.15 3.601-7.055 7.055-.904 3.454.126 7.127 2.694 9.607 2.48 2.568 6.153 3.598 9.607 2.694 3.454-.904 6.15-3.601 7.055-7.055.904-3.454-.126-7.127-2.694-9.607zm-1.393 12.575c-2.664 2.667-6.842 3.081-9.977.989-3.136-2.093-4.358-6.11-2.917-9.593 1.44-3.484 5.141-5.466 8.84-4.733C15.233 2.987 17.9 6.23 17.902 10c.007 2.098-.826 4.11-2.312 5.591z" transform="translate(2 2)"/>
    </symbol>
    <symbol id = "download">
        <path d= "M14.62,18.426l-5.764-6.965c0,0-0.877-0.828,0.074-0.828s3.248,0,3.248,0s0-0.557,0-1.416c0-2.449,0-6.906,0-8.723,c0,0-0.129-0.494,0.615-0.494c0.75,0,4.035,0,4.572,0c0.536,0,0.524,0.416,0.524,0.416c0,1.762,0,6.373,0,8.742,c0,0.768,0,1.266,0,1.266s1.842,0,2.998,0c1.154,0,0.285,0.867,0.285,0.867s-4.904,6.51-5.588,7.193,C15.092,18.979,14.62,18.426,14.62,18.426z"/>
    </symbol>
    <symbol id = "campaign">
        <path d="M25.777,9.144v-8.67c0-1.135-0.961,0.124-0.961,0.124C20.272,7.656,10.895,7.09,10.895,7.09,c-1.108,0-0.932,0.944-0.932,0.944v8.189c0,0.944,0.988,0.944,0.988,0.944c10.485,0,14.057,6.626,14.057,6.626,s0.826,1.028,0.769-0.043v-8.654c1.061-0.572,1.794-1.683,1.794-2.977C27.571,10.826,26.837,9.716,25.777,9.144z"/>
    </symbol>
    <symbol id="circle-right-arrow">
        <path fill-rule="evenodd" d="M12 2C6.486 2 2 6.486 2 12s4.486 10 10 10 10-4.486 10-10S17.514 2 12 2zm0 1.538c4.681 0 8.462 3.78 8.462 8.462 0 4.681-3.78 8.462-8.462 8.462-4.681 0-8.462-3.78-8.462-8.462 0-4.681 3.78-8.462 8.462-8.462zm-1.37 3.294L9.524 7.938 13.587 12l-4.063 4.063 1.106 1.105 4.615-4.615.529-.553-.529-.553-4.615-4.615z"/>
    </symbol>
    <symbol id="auto-generate">
        <path fill-rule="evenodd" clip-rule="evenodd" d="M12 9V6C8.69 6 6 8.69 6 12C6 13.01 6.25 13.97 6.7 14.8L5.24 16.26C4.46 15.03 4 13.57 4 12C4 7.58 7.58 4 12 4V1L16 5L12 9ZM17.3 9.2L18.76 7.74C19.54 8.97 20 10.43 20 12C20 16.42 16.42 20 12 20V23L8 19L12 15V18C15.31 18 18 15.31 18 12C18 10.99 17.74 10.04 17.3 9.2Z" fill="#908989">    
    </symbol>

    
</svg>
