<svg xmlns="http://www.w3.org/2000/svg" width="48" height="48" viewBox="0 0 48 48">
    <path fill="#FFF" fill-rule="evenodd" d="M31.42 25.42c.182-.19.325-.414.42-.66.2-.487.2-1.033 0-1.52-.095-.246-.238-.47-.42-.66l-6-6c-.784-.784-2.056-.784-2.84 0-.784.784-.784 2.056 0 2.84l2.6 2.58H18c-1.105 0-2 .895-2 2s.895 2 2 2h7.18l-2.6 2.58c-.379.376-.592.887-.592 1.42 0 .533.213 1.044.592 1.42.376.379.887.592 1.42.592.533 0 1.044-.213 1.42-.592l6-6zM44 24c0-11.046-8.954-20-20-20S4 12.954 4 24s8.954 20 20 20c5.304 0 10.391-2.107 14.142-5.858C41.892 34.392 44 29.304 44 24zM8 24c0-8.837 7.163-16 16-16s16 7.163 16 16-7.163 16-16 16S8 32.837 8 24z"/>
</svg>
