<svg xmlns="http://www.w3.org/2000/svg" width="48" height="48" viewBox="0 0 48 48">
    <path fill="#FFF" fill-rule="evenodd" d="M16.58 22.58c-.182.19-.325.414-.42.66-.2.487-.2 1.033 0 1.52.095.246.238.47.42.66l6 6c.784.784 2.056.784 2.84 0 .784-.784.784-2.056 0-2.84L22.82 26H30c1.105 0 2-.895 2-2s-.895-2-2-2h-7.18l2.6-2.58c.379-.376.592-.887.592-1.42 0-.533-.213-1.044-.592-1.42-.376-.379-.887-.592-1.42-.592-.533 0-1.044.213-1.42.592l-6 6zM4 24c0 11.046 8.954 20 20 20s20-8.954 20-20S35.046 4 24 4C18.696 4 13.609 6.107 9.858 9.858 6.108 13.608 4 18.696 4 24zm36 0c0 8.837-7.163 16-16 16S8 32.837 8 24 15.163 8 24 8s16 7.163 16 16z"/>
</svg>
