<svg xmlns="http://www.w3.org/2000/svg" width="48" height="48" viewBox="0 0 48 48">
    <path fill="#FFF" fill-rule="evenodd" d="M31.33 16.67c-.371-.374-.876-.584-1.403-.584s-1.032.21-1.403.584L24 21.214l-4.524-4.544c-.775-.774-2.031-.774-2.806 0-.774.775-.774 2.031 0 2.806L21.214 24l-4.544 4.524c-.374.371-.584.876-.584 1.403s.21 1.032.584 1.403c.371.374.876.584 1.403.584s1.032-.21 1.403-.584L24 26.786l4.524 4.544c.371.374.876.584 1.403.584s1.032-.21 1.403-.584c.374-.371.584-.876.584-1.403s-.21-1.032-.584-1.403L26.786 24l4.544-4.524c.374-.371.584-.876.584-1.403s-.21-1.032-.584-1.403zm6.638-6.638c-4.96-5.136-12.306-7.196-19.214-5.388-6.907 1.808-12.302 7.203-14.11 14.11-1.808 6.908.252 14.254 5.388 19.214 4.96 5.136 12.306 7.196 19.214 5.388 6.907-1.808 12.302-7.203 14.11-14.11 1.808-6.908-.252-14.254-5.388-19.214zm-2.786 25.15c-5.328 5.335-13.683 6.163-19.955 1.978-6.272-4.186-8.714-12.218-5.833-19.186 2.88-6.968 10.282-10.931 17.678-9.466C34.468 9.974 39.8 16.46 39.805 24c.015 4.195-1.65 8.222-4.623 11.182z"/>
</svg>
