<svg xmlns="http://www.w3.org/2000/svg" width="291" height="32" viewBox="0 0 291 32">
    <g fill="none" fill-rule="evenodd">
        <g fill-rule="nonzero">
            <g>
                <path fill="#05D" d="M52.817 26.114c-1.532.043-3.054-.248-4.463-.851-1.179-.53-2.174-1.4-2.857-2.497-.728-1.24-1.122-2.648-1.143-4.086v-2.417-2.469c.022-1.427.416-2.823 1.143-4.051.697-1.112 1.71-1.991 2.909-2.526 1.391-.607 2.9-.901 4.417-.863 1.132-.011 2.26.141 3.348.452.967.276 1.877.723 2.686 1.32.747.552 1.36 1.265 1.794 2.085.443.851.675 1.796.675 2.755.02.154-.036.31-.149.417-.117.106-.27.163-.428.16h-3.703c-.202.02-.405-.032-.572-.149-.162-.155-.277-.353-.331-.571-.147-.787-.586-1.489-1.229-1.966-.64-.385-1.377-.583-2.125-.571-.879-.043-1.738.266-2.389.857-.571.571-.903 1.486-.96 2.788-.05 1.498-.05 3.035 0 4.612.057 1.295.377 2.223.96 2.783.654.584 1.513.886 2.389.84.754.019 1.498-.18 2.142-.572.653-.471 1.096-1.178 1.235-1.971.039-.22.15-.42.314-.572.17-.108.37-.16.571-.148h3.703c.16-.007.315.053.429.166.113.104.169.258.148.411.007.977-.227 1.94-.68 2.806-.437.81-1.05 1.513-1.794 2.057-.811.597-1.723 1.044-2.691 1.32-1.089.31-2.217.463-3.349.451zM68.189 26.114c-.916.012-1.822-.183-2.652-.571-.736-.344-1.373-.869-1.851-1.526-1.193-1.703-.79-4.05.903-5.257 1.271-.835 2.718-1.365 4.228-1.549l3.429-.52v-.388c.035-.535-.11-1.066-.412-1.509-.4-.394-.956-.586-1.514-.52-.435-.017-.867.087-1.246.303-.323.21-.582.504-.748.852-.15.23-.411.364-.686.354h-3.069c-.175.016-.348-.05-.468-.177-.107-.114-.157-.269-.137-.423.024-.406.152-.8.371-1.143.303-.489.69-.92 1.143-1.274.581-.466 1.241-.824 1.949-1.057.94-.297 1.922-.438 2.908-.418 1.03-.02 2.059.12 3.046.418.758.223 1.457.614 2.046 1.142.505.49.896 1.085 1.142 1.743.265.707.397 1.457.389 2.212v8.337c.006.186-.069.365-.206.491-.13.127-.304.197-.485.195h-3.126c-.184.006-.362-.064-.492-.194s-.2-.308-.194-.492v-.949c-.266.372-.597.694-.977.949-.431.306-.907.543-1.411.703-.61.185-1.244.275-1.88.268zm1.285-3.125c.503.006 1-.112 1.446-.343.442-.243.795-.62 1.011-1.075.268-.569.395-1.194.372-1.822v-.383l-2.332.411c-.67.074-1.313.303-1.88.669-.35.24-.562.633-.571 1.057-.008.29.09.575.274.8.191.226.437.4.715.503.307.123.635.185.965.183zM80.783 25.84c-.184.006-.362-.064-.492-.194s-.2-.308-.194-.492V12.257c-.008-.185.063-.366.194-.497.131-.129.308-.2.492-.194h2.994c.184-.005.361.065.492.194.131.131.202.312.194.497v.932c.414-.539.938-.983 1.537-1.303.717-.383 1.519-.58 2.331-.572 2.103-.034 3.549.762 4.338 2.389.447-.717 1.07-1.307 1.811-1.714 1.597-.888 3.536-.898 5.143-.029.789.465 1.423 1.153 1.823 1.977.494 1.073.73 2.248.685 3.429v7.777c.007.186-.069.365-.205.491-.128.127-.3.197-.48.195h-3.16c-.189.005-.372-.065-.509-.195-.137-.126-.212-.305-.206-.491v-7.589c.023-.522-.07-1.043-.274-1.525-.152-.345-.413-.63-.743-.812-.33-.17-.697-.254-1.068-.246-.34.002-.673.086-.972.246-.347.177-.628.462-.8.812-.21.48-.308 1.002-.285 1.525v7.589c.004.183-.066.36-.195.491-.129.132-.307.202-.491.195h-3.189c-.183.006-.362-.064-.492-.194s-.2-.308-.193-.492v-7.589c.024-.525-.077-1.048-.298-1.525-.171-.341-.44-.623-.771-.812-.32-.167-.678-.252-1.04-.246-.34.002-.676.086-.977.246-.337.182-.607.466-.772.812-.208.47-.306.982-.285 1.497v7.617c.006.186-.07.365-.206.491-.137.13-.32.2-.509.195l-3.228.011zM105.897 31.057c-.183.005-.36-.065-.491-.194-.132-.13-.202-.308-.195-.492V12.257c-.007-.185.063-.366.195-.497.13-.129.308-.2.491-.194H109c.18 0 .351.07.48.194.137.128.212.31.206.497v1.012c.447-.588 1.02-1.07 1.674-1.412.8-.403 1.688-.6 2.583-.571.824-.017 1.643.129 2.411.428.682.273 1.292.7 1.783 1.246.507.589.895 1.27 1.143 2.006.296.877.458 1.794.48 2.72V19.714c-.024.906-.182 1.803-.469 2.663-.241.739-.63 1.421-1.142 2.006-.498.551-1.11.986-1.795 1.274-.77.314-1.596.468-2.428.452-.81.018-1.612-.146-2.349-.48-.657-.31-1.228-.777-1.663-1.36v6.102c.007.183-.06.36-.188.492-.134.128-.313.198-.497.194h-3.332zm6.56-8.617c.515.03 1.026-.107 1.457-.389.354-.26.618-.623.755-1.04.16-.47.257-.96.285-1.457.04-.57.04-1.143 0-1.714-.029-.495-.125-.983-.285-1.451-.139-.418-.402-.783-.755-1.046-.433-.278-.943-.412-1.457-.383-.514-.027-1.023.114-1.451.4-.364.255-.642.613-.8 1.029-.17.438-.262.902-.275 1.371v2.057c.015.443.118.878.303 1.28.183.389.467.72.823.96.418.265.906.399 1.4.383zM126.811 26.114c-.913.012-1.818-.184-2.645-.571-.744-.339-1.391-.86-1.88-1.514-1.195-1.704-.79-4.053.908-5.258 1.271-.835 2.719-1.365 4.229-1.548l3.428-.52v-.389c.036-.534-.109-1.066-.411-1.508-.397-.395-.953-.587-1.509-.52-.437-.019-.87.086-1.251.303-.315.209-.568.499-.731.84-.15.23-.411.364-.686.354h-3.074c-.174.014-.344-.05-.463-.177-.111-.111-.164-.268-.143-.423.024-.406.152-.8.371-1.143.304-.488.69-.92 1.143-1.274.59-.464 1.26-.816 1.977-1.04.94-.297 1.923-.438 2.909-.417 1.03-.02 2.058.12 3.046.417.757.226 1.455.616 2.045 1.143.506.488.896 1.084 1.143 1.742.263.708.393 1.457.383 2.212v8.32c.006.186-.069.365-.206.491-.127.127-.3.197-.48.195h-3.183c-.184.008-.363-.062-.493-.192s-.2-.31-.192-.494v-.949c-.257.367-.574.687-.937.949-.434.306-.912.543-1.418.703-.609.185-1.243.276-1.88.268zm1.292-3.125c.5.007.996-.111 1.44-.343.443-.243.799-.619 1.017-1.075.265-.57.393-1.194.371-1.822v-.383l-2.337.411c-.67.075-1.313.304-1.88.669-.35.24-.562.633-.571 1.057-.008.29.09.575.274.8.192.225.438.398.714.503.31.123.64.185.972.183zM139.383 9.509c-.184.008-.364-.062-.494-.192s-.2-.31-.192-.494v-2.44c-.005-.189.065-.372.194-.509.127-.136.306-.212.492-.205h3.268c.19-.005.372.07.503.205.136.134.21.318.206.509v2.44c.006.187-.07.368-.206.497-.136.126-.317.194-.503.189h-3.268zm.046 16.331c-.185.008-.364-.061-.494-.192-.13-.13-.2-.31-.192-.494V12.257c-.01-.185.059-.366.19-.498.13-.131.31-.202.496-.193h3.24c.179 0 .35.07.48.194.137.128.212.31.205.497v12.886c.006.186-.069.365-.205.491-.128.127-.3.197-.48.195l-3.24.011zM153.543 31.88c-1.191.028-2.377-.165-3.497-.571-.81-.295-1.555-.743-2.195-1.32-.473-.43-.86-.946-1.142-1.52-.2-.372-.332-.777-.389-1.195-.021-.187.051-.373.194-.497.145-.124.33-.191.52-.188h3.486c.152-.004.301.037.429.12.135.111.234.26.285.428.104.22.229.431.372.629.169.232.395.417.657.537.362.15.751.22 1.143.206.47.016.94-.074 1.371-.263.363-.168.656-.457.829-.817.202-.5.296-1.038.274-1.578V24c-.446.488-.99.877-1.594 1.143-.76.303-1.572.447-2.389.423-.841.015-1.678-.124-2.468-.412-.688-.256-1.301-.68-1.783-1.234-.498-.59-.876-1.271-1.115-2.006-.28-.88-.441-1.792-.48-2.714v-1.429c.042-.904.2-1.799.469-2.662.234-.742.61-1.431 1.109-2.029.49-.569 1.106-1.015 1.8-1.303.783-.317 1.623-.472 2.468-.457.882-.023 1.756.174 2.543.571.66.352 1.242.832 1.714 1.412v-1.046c-.002-.178.066-.35.189-.48.126-.14.308-.218.497-.211H160c.192-.005.376.072.509.211.132.125.206.299.205.48v13.2c.04 1.227-.255 2.442-.851 3.514-.572.955-1.424 1.711-2.44 2.166-1.223.529-2.548.783-3.88.743zm-.189-9.909c.503.024 1-.11 1.423-.382.36-.246.64-.589.812-.989.175-.409.274-.847.291-1.291v-.852-.823c-.016-.454-.114-.901-.291-1.32-.168-.397-.45-.735-.812-.971-.426-.264-.922-.393-1.423-.372-.508-.025-1.011.109-1.44.383-.36.259-.63.625-.771 1.046-.16.469-.257.957-.286 1.451-.023.413-.023.827 0 1.24.029.495.125.983.286 1.452.14.421.41.787.771 1.046.428.276.932.41 1.44.382zM164.634 25.84c-.184.008-.363-.061-.494-.192-.13-.13-.2-.31-.191-.494V12.257c-.01-.185.059-.366.19-.498.13-.131.31-.202.495-.193h3.155c.184-.004.363.066.497.194.127.133.196.313.188.497v1.04c.519-.599 1.155-1.085 1.869-1.428.848-.4 1.777-.596 2.714-.572.985-.022 1.958.22 2.817.703.831.5 1.498 1.23 1.92 2.103.493 1.06.732 2.22.697 3.388v7.652c.007.186-.069.365-.205.491-.128.127-.3.197-.48.195h-3.457c-.18.002-.353-.068-.48-.195-.137-.126-.212-.305-.206-.491v-7.48c.048-.717-.172-1.425-.617-1.989-.472-.495-1.141-.753-1.823-.703-.673-.032-1.328.223-1.8.703-.48.547-.724 1.263-.674 1.989v7.48c.006.186-.07.365-.206.491-.128.127-.3.197-.48.195l-3.429.011z" transform="translate(-542 -128) translate(542 128)"/>
                <path fill="#212730" d="M182.966 25.84c-.169.006-.333-.058-.452-.177-.12-.12-.183-.283-.177-.452V7.286c-.01-.178.055-.352.177-.48.12-.12.283-.184.452-.177h1.371c.181-.014.36.045.497.165.086.074.15.168.189.275l5.834 11.085 5.846-11.085c.054-.102.124-.194.206-.275.128-.121.303-.182.48-.165h1.342c.179-.014.354.05.48.177.127.126.191.302.178.48V25.21c.006.169-.058.333-.178.452-.128.122-.302.187-.48.177h-1.342c-.17.01-.335-.054-.452-.177-.12-.119-.187-.282-.183-.452V11.71l-4.571 8.942c-.065.172-.178.32-.326.429-.17.107-.37.159-.571.149h-.852c-.201.01-.4-.041-.571-.149-.146-.114-.264-.26-.343-.429l-4.571-8.942V25.21c.006.169-.058.333-.177.452-.12.12-.283.183-.452.177h-1.354zM207.749 26.114c-.866.004-1.72-.191-2.498-.571-.717-.33-1.343-.83-1.822-1.457-.454-.611-.695-1.354-.686-2.115-.03-1.2.548-2.335 1.537-3.017 1.192-.815 2.565-1.325 4-1.485l4.091-.572v-.8c.046-.76-.228-1.506-.754-2.057-.503-.497-1.32-.743-2.457-.743-.697-.033-1.389.14-1.989.497-.477.296-.847.737-1.057 1.257-.07.255-.307.427-.571.418h-1.234c-.17.009-.336-.058-.452-.183-.103-.116-.158-.268-.154-.423.026-.36.136-.708.32-1.017.247-.45.576-.85.971-1.177.509-.426 1.09-.757 1.715-.978.804-.284 1.655-.42 2.508-.4.942-.025 1.881.12 2.772.429.672.235 1.28.627 1.771 1.143.424.467.742 1.02.931 1.623.193.592.291 1.211.292 1.834v8.891c.004.17-.062.333-.183.452-.117.123-.282.188-.451.177h-1.263c-.173.014-.344-.05-.463-.177-.114-.122-.173-.285-.166-.452V24.03c-.62.834-1.484 1.454-2.474 1.771-.722.23-1.477.335-2.234.314zm.571-2.057c.716.009 1.424-.156 2.063-.48.632-.334 1.143-.858 1.463-1.497.385-.795.57-1.672.537-2.554v-.766l-3.183.469c-1.026.097-2.019.41-2.914.92-.501.277-.852.764-.956 1.327-.104.563.05 1.143.419 1.581.31.344.704.603 1.142.754.461.163.946.247 1.435.246h-.006zM219.554 25.84c-.17.006-.335-.058-.457-.177-.117-.12-.18-.283-.177-.452V12.2c-.005-.17.06-.334.18-.454s.285-.185.454-.18h1.292c.169-.003.332.063.451.183.12.119.184.282.177.451v1.206c.486-.628 1.1-1.146 1.8-1.52.866-.42 1.822-.617 2.783-.572 1.065-.031 2.117.24 3.034.783.828.522 1.483 1.278 1.88 2.172.437 1.017.651 2.116.629 3.222v7.72c.007.166-.05.328-.16.452-.114.12-.275.184-.44.177h-1.377c-.169.006-.332-.058-.452-.177-.12-.12-.183-.283-.177-.452v-7.605c.062-1.082-.268-2.15-.931-3.006-.706-.756-1.716-1.153-2.749-1.08-1.022-.043-2.015.35-2.731 1.08-.723.829-1.093 1.908-1.029 3.006v7.605c.007.169-.057.333-.177.452-.119.12-.283.183-.451.177h-1.372zM239.531 26.114c-.865.004-1.72-.191-2.497-.571-.716-.338-1.338-.846-1.811-1.48-.454-.611-.695-1.354-.686-2.114-.03-1.201.548-2.336 1.537-3.018 1.191-.816 2.565-1.326 4-1.485l4.092-.572v-.777c.045-.76-.228-1.506-.755-2.057-.502-.497-1.32-.743-2.457-.743-.697-.033-1.389.14-1.988.497-.477.296-.848.737-1.057 1.257-.072.255-.308.427-.572.418h-1.234c-.17.009-.336-.058-.452-.183-.103-.116-.158-.268-.154-.423.027-.36.136-.708.32-1.017.247-.45.576-.85.972-1.177.5-.422 1.07-.753 1.685-.978.807-.284 1.66-.42 2.515-.4.942-.025 1.88.12 2.771.429.673.235 1.28.627 1.771 1.143.425.467.742 1.02.932 1.623.192.592.29 1.211.291 1.834v8.891c.003.17-.063.332-.182.45-.12.12-.283.184-.452.179h-1.263c-.173.014-.343-.05-.463-.177-.113-.122-.173-.285-.165-.452V24.03c-.62.834-1.485 1.454-2.475 1.771-.718.228-1.47.334-2.223.314zm.572-2.057c.714.009 1.42-.156 2.057-.48.636-.33 1.15-.855 1.469-1.497.385-.795.57-1.672.537-2.554v-.766l-3.183.469c-1.034.093-2.035.407-2.937.92-.597.327-.974.948-.989 1.628-.016.468.145.926.452 1.28.31.344.704.603 1.142.754.468.166.961.25 1.458.246h-.006zM256.571 31.88c-1.041.035-2.08-.134-3.057-.497-.7-.262-1.337-.669-1.868-1.194-.405-.403-.73-.878-.96-1.4-.163-.351-.269-.725-.315-1.109-.022-.176.044-.352.178-.469.12-.119.282-.186.451-.188h1.32c.145-.007.288.031.411.108.14.123.236.287.275.469.134.32.299.626.491.914.26.375.61.678 1.017.88.601.277 1.26.404 1.92.372.739.02 1.475-.096 2.172-.343.577-.224 1.05-.654 1.331-1.206.334-.746.488-1.56.452-2.377V24c-.465.587-1.05 1.068-1.715 1.411-.835.406-1.757.602-2.685.572-.91.025-1.812-.157-2.64-.532-.704-.338-1.319-.838-1.795-1.457-.476-.628-.83-1.339-1.045-2.097-.232-.806-.364-1.636-.395-2.474-.023-.51-.023-1.013 0-1.509.031-.836.164-1.664.395-2.468.216-.763.57-1.48 1.045-2.115.473-.625 1.088-1.129 1.795-1.468.828-.377 1.73-.56 2.64-.537.949-.033 1.89.182 2.731.623.68.377 1.28.884 1.766 1.491v-1.211c-.003-.174.063-.343.183-.469.113-.13.279-.2.451-.194h1.263c.364.003.657.299.657.663v13.308c.02 1.12-.19 2.233-.617 3.269-.414.952-1.129 1.743-2.034 2.251-1.178.606-2.495.89-3.818.823zm-.051-8.126c.784.038 1.56-.183 2.206-.628.549-.41.976-.96 1.234-1.595.263-.617.409-1.278.429-1.948 0-.257.028-.572.028-.949s0-.691-.028-.943c-.02-.67-.165-1.331-.429-1.948-.258-.634-.685-1.185-1.234-1.594-1.351-.831-3.055-.831-4.406 0-.545.404-.956.964-1.177 1.605-.245.694-.383 1.42-.412 2.155v1.457c.029.734.167 1.46.412 2.154.21.641.608 1.205 1.143 1.617.649.443 1.426.66 2.211.617h.023zM272.771 26.114c-1.68.083-3.316-.55-4.502-1.743-1.176-1.307-1.831-3.001-1.84-4.76 0-.24-.029-.571-.029-.92 0-.348 0-.68.029-.92.043-1.196.354-2.367.908-3.428.496-.954 1.253-1.747 2.183-2.286.994-.55 2.116-.827 3.251-.8 1.226-.04 2.437.265 3.498.88.952.597 1.703 1.467 2.154 2.497.52 1.194.773 2.487.743 3.789v.468c.014.174-.051.344-.177.463-.125.114-.29.174-.458.166h-9.491v.246c.029.726.195 1.44.491 2.103.274.628.71 1.172 1.263 1.577.575.413 1.27.626 1.977.605.564.017 1.125-.087 1.646-.302.628-.28 1.182-.703 1.617-1.235.099-.168.23-.314.389-.428.138-.055.286-.078.434-.069h1.32c.164-.006.325.05.452.154.122.105.18.265.154.423-.058.366-.21.71-.44 1-.333.44-.732.826-1.183 1.143-.566.412-1.195.73-1.863.943-.812.283-1.665.43-2.526.434zm-3.731-8.451h7.531v-.086c.014-.756-.143-1.506-.457-2.194-.585-1.306-1.9-2.13-3.331-2.086-.715-.02-1.419.18-2.017.572-.562.376-1.005.903-1.28 1.52-.301.691-.45 1.44-.435 2.194l-.011.08zM283.091 25.84c-.17.006-.335-.058-.457-.177-.117-.12-.18-.283-.177-.452V12.23c-.001-.173.062-.34.177-.469.118-.127.284-.197.457-.194h1.263c.364.003.657.299.657.663v1.205c.351-.607.877-1.095 1.509-1.4.717-.324 1.498-.484 2.286-.468h1.097c.166-.006.327.06.44.183.11.124.167.285.16.451v1.143c.012.163-.046.323-.16.44-.119.112-.277.172-.44.166h-1.646c-.865-.048-1.71.265-2.337.862-.577.636-.875 1.475-.829 2.332v8.068c.008.172-.06.337-.188.452-.127.118-.295.182-.469.177h-1.343z" transform="translate(-542 -128) translate(542 128)"/>
                <path fill="#05D" d="M29.143 1.286c-.397-.22-.882-.213-1.271.021-.39.234-.625.657-.617 1.111.007.455.256.87.654 1.09 3.67 2.032 5 6.654 2.971 10.326-.109.195-.223.383-.349.572-.383.584-.222 1.368.36 1.754.569.371 1.33.222 1.715-.337 3.142-4.626 1.942-10.922-2.68-14.069-.246-.165-.503-.325-.783-.468z" transform="translate(-542 -128) translate(542 128)"/>
                <path fill="#05D" d="M26.709 5.714c-.398-.22-.882-.212-1.272.022-.389.233-.624.657-.617 1.111.008.454.257.87.654 1.09.623.34 1.073.925 1.24 1.614.168.689.038 1.416-.36 2.003-.393.578-.245 1.365.332 1.76.278.187.62.255.95.19.328-.065.618-.259.804-.538.846-1.23 1.103-2.773.703-4.212-.382-1.293-1.256-2.385-2.434-3.04zM18.046.051c-.323.09-.597.307-.76.6-.163.292-.202.638-.109.96l.223.772c-1.337 3.178-4.038 5.582-7.349 6.543L2.75 11.023c-2.014.58-3.177 2.682-2.6 4.697l.697 2.434c.58 2.014 2.682 3.177 4.697 2.6l.571-.165-.971 7.662c-.043.34.054.684.27.95.216.267.531.433.873.462.172.024.347.01.514-.04l4.863-1.394c.488-.137.847-.554.908-1.058l1.098-8.685c3.09-.646 6.311.016 8.897 1.828l.223.772c.224.63.9.979 1.544.794.644-.184 1.033-.837.89-1.491L19.61.92c-.091-.323-.308-.597-.602-.76-.294-.163-.64-.202-.963-.109z" transform="translate(-542 -128) translate(542 128)"/>
                <path fill="#CFE7FF" d="M4.846 18.32c-.322.094-.668.055-.962-.107-.294-.162-.511-.434-.604-.756l-.697-2.434c-.196-.666.181-1.365.846-1.566l1.217-.354L6.04 17.97l-1.194.349zM10.137 26.023L7.914 26.663 8.777 19.829 11 19.194zM21.549 16.857c-2.966-1.291-6.289-1.513-9.4-.628l-3.652 1.045-1.394-4.868 3.646-1.046c3.109-.896 5.81-2.846 7.64-5.514l3.16 11.011z" transform="translate(-542 -128) translate(542 128)"/>
            </g>
        </g>
    </g>
</svg>
