<svg xmlns="http://www.w3.org/2000/svg" width="24" height="24" viewBox="0 0 24 24">
    <g fill="none" fill-rule="evenodd">
        <g fill-rule="nonzero">
            <g>
                <path fill="#05D" d="M20.066.885C19.792.733 19.459.74 19.19.9c-.268.16-.43.452-.425.765.006.313.177.599.45.75 2.528 1.4 3.444 4.582 2.047 7.11-.075.134-.154.264-.24.394-.265.402-.154.942.248 1.208.39.255.914.152 1.18-.233 2.163-3.184 1.337-7.52-1.845-9.686-.17-.114-.347-.224-.54-.323z" transform="translate(0 2)"/>
                <path fill="#05D" d="M18.39 3.934c-.274-.151-.608-.146-.876.015-.268.16-.43.453-.425.765.006.313.177.6.45.75.43.234.74.638.855 1.112.115.474.025.975-.248 1.38-.271.397-.17.94.228 1.211.192.129.427.176.654.13.226-.044.426-.178.554-.37.582-.847.76-1.909.484-2.9-.263-.89-.865-1.642-1.676-2.093zM12.425.035c-.222.063-.41.211-.523.413-.112.202-.14.44-.075.662l.153.53C11.06 3.83 9.2 5.485 6.92 6.147L1.893 7.59c-1.386.4-2.187 1.846-1.79 3.234l.48 1.676c.4 1.386 1.847 2.187 3.234 1.79l.394-.114-.669 5.276c-.03.234.037.47.186.654.149.183.366.298.6.318.12.016.24.007.355-.028l3.348-.96c.336-.094.583-.381.626-.728l.755-5.98c2.128-.445 4.346.01 6.126 1.259l.153.531c.155.434.62.674 1.064.547.443-.127.711-.577.613-1.027L13.503.633c-.063-.222-.212-.41-.415-.523-.202-.112-.44-.139-.663-.075z" transform="translate(0 2)"/>
                <path fill="#CFE7FF" d="M3.336 12.614c-.221.064-.46.038-.662-.074-.202-.111-.352-.298-.416-.52l-.48-1.676c-.135-.459.125-.94.583-1.078l.838-.244.96 3.352-.823.24zM6.98 17.917L5.449 18.358 6.043 13.652 7.574 13.216zM14.837 11.607c-2.042-.89-4.33-1.043-6.472-.433l-2.515.72-.96-3.352 2.51-.72c2.141-.617 4.001-1.96 5.261-3.797l2.176 7.582z" transform="translate(0 2)"/>
            </g>
        </g>
    </g>
</svg>
