<svg xmlns="http://www.w3.org/2000/svg" width="33" height="20" viewBox="0 0 33 20">
    <g fill="#FFF">
        <path d="M12.233 9.907C12.23 6.88 13.619 4.02 16 2.15c2.969-2.334 7.01-2.768 10.406-1.118 3.397 1.65 5.553 5.095 5.553 8.871v.003c0 3.776-2.156 7.22-5.553 8.871-3.397 1.65-7.437 1.216-10.406-1.118-2.38-1.868-3.77-4.727-3.767-7.753z" opacity=".9"/>
        <path d="M12.233 9.907C12.23 6.88 13.619 4.02 16 2.15 11.956-1.027 6.149-.564 2.66 3.214c-3.49 3.779-3.49 9.604 0 13.383 3.489 3.778 9.296 4.241 13.34 1.063-2.38-1.868-3.77-4.727-3.767-7.753zM31.057 16.626v-.823h.155v-.17h-.393v.17h.168v.823h.07zm.762 0v-.993H31.7l-.138.71-.139-.71h-.105v.993h.085v-.745l.129.645h.09l.128-.645v.752l.07-.007z"/>
    </g>
</svg>
