<svg xmlns="http://www.w3.org/2000/svg" width="32" height="20" viewBox="0 0 32 20">
    <g fill="none">
        <path fill="#FF5F00" d="M11.665 2.151H20.28V17.661H11.665z"/>
        <path fill="#EB001B" d="M12.212 9.907c-.003-3.027 1.384-5.887 3.76-7.756C11.937-1.027 6.139-.564 2.656 3.214c-3.483 3.779-3.483 9.604 0 13.383 3.483 3.778 9.28 4.241 13.318 1.063-2.377-1.868-3.763-4.727-3.761-7.753z"/>
        <path fill="#F79E1B" d="M31.904 9.907c0 3.776-2.152 7.22-5.543 8.871-3.391 1.65-7.425 1.216-10.388-1.118 2.375-1.87 3.762-4.728 3.762-7.755 0-3.026-1.387-5.884-3.762-7.754C18.936-.183 22.97-.617 26.36 1.033c3.39 1.65 5.543 5.095 5.543 8.871v.003zM31.004 16.626v-.823h.155v-.17h-.393v.17h.169v.823h.07zm.762 0v-.993h-.118l-.139.71-.139-.71h-.105v.993h.086v-.745l.128.645h.09l.128-.645v.752l.07-.007z"/>
    </g>
</svg>
